G75*
%MOIN*%
%OFA0B0*%
%FSLAX25Y25*%
%IPPOS*%
%LPD*%
%AMOC8*
5,1,8,0,0,1.08239X$1,22.5*
%
%ADD10C,0.04000*%
%ADD11OC8,0.06000*%
%ADD12R,0.03300X0.06300*%
%ADD13R,0.12200X0.06300*%
%ADD14R,0.04134X0.04252*%
%ADD15R,0.05118X0.05906*%
%ADD16OC8,0.05200*%
%ADD17C,0.01000*%
%ADD18OC8,0.04134*%
%ADD19C,0.01969*%
D10*
X0009351Y0026984D03*
X0014351Y0026984D03*
X0019351Y0026984D03*
X0024351Y0026984D03*
D11*
X0050351Y0029984D03*
X0050351Y0019984D03*
X0050351Y0009984D03*
X0060351Y0009984D03*
X0060351Y0019984D03*
X0060351Y0029984D03*
X0060351Y0039984D03*
X0060351Y0049984D03*
X0050351Y0049984D03*
X0050351Y0039984D03*
D12*
X0035451Y0063584D03*
X0026351Y0063584D03*
X0017251Y0063584D03*
D13*
X0026351Y0038384D03*
D14*
X0024796Y0079984D03*
X0017906Y0079984D03*
X0033906Y0079984D03*
X0040796Y0079984D03*
D15*
X0041091Y0071984D03*
X0033611Y0071984D03*
X0025091Y0071984D03*
X0017611Y0071984D03*
D16*
X0009351Y0077984D03*
X0009351Y0087984D03*
X0039351Y0087984D03*
X0039351Y0037984D03*
X0009351Y0017984D03*
D17*
X0009351Y0010984D01*
X0015351Y0004984D01*
X0055351Y0004984D01*
X0060351Y0009984D01*
X0060351Y0019984D01*
X0060351Y0029984D01*
X0060351Y0039984D01*
X0060351Y0049984D01*
X0060351Y0068984D01*
X0057351Y0071984D01*
X0041091Y0071984D01*
X0041091Y0079689D01*
X0045056Y0079689D01*
X0046351Y0080984D01*
X0046351Y0083984D01*
X0041091Y0079689D02*
X0040796Y0079984D01*
X0035851Y0084484D02*
X0039351Y0087984D01*
X0035851Y0084484D02*
X0033906Y0082539D01*
X0033906Y0079984D01*
X0033611Y0079689D01*
X0033611Y0071984D01*
X0035451Y0070144D01*
X0035451Y0063584D01*
X0026351Y0063584D02*
X0026351Y0057984D01*
X0047611Y0057984D01*
X0056056Y0066429D01*
X0042351Y0048984D02*
X0045651Y0045684D01*
X0045651Y0030284D01*
X0042351Y0026984D01*
X0024351Y0026984D01*
X0026351Y0038384D02*
X0013751Y0038384D01*
X0009351Y0033984D01*
X0009351Y0026984D01*
X0005351Y0023984D02*
X0007351Y0021984D01*
X0042351Y0021984D01*
X0045351Y0024984D01*
X0051351Y0024984D01*
X0055351Y0028984D01*
X0055351Y0034984D01*
X0050351Y0039984D01*
X0026351Y0038384D02*
X0026351Y0057984D01*
X0022351Y0056984D02*
X0018351Y0056984D01*
X0017251Y0058084D01*
X0017251Y0063584D01*
X0017251Y0071624D01*
X0017611Y0071984D01*
X0017611Y0079689D01*
X0017906Y0079984D01*
X0018351Y0080429D01*
X0018351Y0084984D01*
X0024796Y0079984D02*
X0025091Y0079689D01*
X0025091Y0071984D01*
X0025091Y0064844D01*
X0026351Y0063584D01*
X0011612Y0070767D02*
X0006134Y0070767D01*
X0005351Y0069984D01*
X0005351Y0023984D01*
D18*
X0022351Y0056984D03*
X0011612Y0070767D03*
X0018351Y0084984D03*
X0042351Y0048984D03*
X0056056Y0066429D03*
X0046351Y0083984D03*
D19*
X0004304Y0022084D02*
X0004304Y0003968D01*
X0065296Y0003968D01*
X0065296Y0007880D01*
X0062416Y0005000D01*
X0060367Y0005000D01*
X0060367Y0009968D01*
X0060335Y0009968D01*
X0060335Y0005000D01*
X0058286Y0005000D01*
X0055367Y0007920D01*
X0055367Y0009968D01*
X0060335Y0009968D01*
X0060335Y0010000D01*
X0055367Y0010000D01*
X0055367Y0012049D01*
X0058286Y0014968D01*
X0060335Y0014968D01*
X0060335Y0010000D01*
X0060367Y0010000D01*
X0060367Y0014968D01*
X0062416Y0014968D01*
X0065296Y0012088D01*
X0065296Y0017880D01*
X0062416Y0015000D01*
X0060367Y0015000D01*
X0060367Y0019968D01*
X0060335Y0019968D01*
X0060335Y0015000D01*
X0058286Y0015000D01*
X0055367Y0017920D01*
X0055367Y0019968D01*
X0060335Y0019968D01*
X0060335Y0020000D01*
X0055367Y0020000D01*
X0055367Y0022049D01*
X0058286Y0024968D01*
X0060335Y0024968D01*
X0060335Y0020000D01*
X0060367Y0020000D01*
X0060367Y0024968D01*
X0062416Y0024968D01*
X0065296Y0022088D01*
X0065296Y0027880D01*
X0062416Y0025000D01*
X0060367Y0025000D01*
X0060367Y0029968D01*
X0060335Y0029968D01*
X0060335Y0025000D01*
X0058286Y0025000D01*
X0056300Y0026986D01*
X0053435Y0024121D01*
X0053066Y0023752D01*
X0054935Y0021883D01*
X0054935Y0018085D01*
X0052250Y0015400D01*
X0048452Y0015400D01*
X0045767Y0018085D01*
X0045767Y0021883D01*
X0046784Y0022900D01*
X0046214Y0022900D01*
X0044435Y0021121D01*
X0043214Y0019900D01*
X0013918Y0019900D01*
X0013935Y0019883D01*
X0013935Y0017984D01*
X0009351Y0017984D01*
X0009351Y0017984D01*
X0009351Y0013400D01*
X0007452Y0013400D01*
X0004767Y0016085D01*
X0004767Y0017984D01*
X0009351Y0017984D01*
X0009351Y0013400D01*
X0011250Y0013400D01*
X0013935Y0016085D01*
X0013935Y0017984D01*
X0009351Y0017984D01*
X0009351Y0017984D01*
X0009351Y0017984D01*
X0004767Y0017984D01*
X0004767Y0019883D01*
X0005636Y0020752D01*
X0004488Y0021900D01*
X0004304Y0022084D01*
X0004304Y0021654D02*
X0004733Y0021654D01*
X0004767Y0019687D02*
X0004304Y0019687D01*
X0004304Y0017720D02*
X0004767Y0017720D01*
X0005099Y0015753D02*
X0004304Y0015753D01*
X0004304Y0013786D02*
X0007066Y0013786D01*
X0009351Y0013786D02*
X0009351Y0013786D01*
X0009351Y0015753D02*
X0009351Y0015753D01*
X0009351Y0017720D02*
X0009351Y0017720D01*
X0011636Y0013786D02*
X0047670Y0013786D01*
X0048452Y0014568D02*
X0045767Y0011883D01*
X0045767Y0008085D01*
X0048452Y0005400D01*
X0052250Y0005400D01*
X0054935Y0008085D01*
X0054935Y0011883D01*
X0052250Y0014568D01*
X0048452Y0014568D01*
X0048099Y0015753D02*
X0013603Y0015753D01*
X0013935Y0017720D02*
X0046132Y0017720D01*
X0045767Y0019687D02*
X0013935Y0019687D01*
X0019351Y0026984D02*
X0019351Y0030968D01*
X0018959Y0030968D01*
X0018189Y0030815D01*
X0017464Y0030515D01*
X0016811Y0030079D01*
X0016568Y0029836D01*
X0016381Y0030023D01*
X0015064Y0030568D01*
X0013638Y0030568D01*
X0012321Y0030023D01*
X0011851Y0029553D01*
X0011435Y0029969D01*
X0011435Y0033121D01*
X0014614Y0036300D01*
X0018667Y0036300D01*
X0018667Y0034578D01*
X0019595Y0033650D01*
X0033107Y0033650D01*
X0034035Y0034578D01*
X0034035Y0042190D01*
X0033107Y0043118D01*
X0028435Y0043118D01*
X0028435Y0055900D01*
X0048474Y0055900D01*
X0049695Y0057121D01*
X0055352Y0062778D01*
X0057568Y0062778D01*
X0059707Y0064917D01*
X0059707Y0067941D01*
X0057568Y0070080D01*
X0054543Y0070080D01*
X0052405Y0067941D01*
X0052405Y0065726D01*
X0046748Y0060068D01*
X0038685Y0060068D01*
X0038685Y0067047D01*
X0040796Y0067047D01*
X0040796Y0071689D01*
X0041386Y0071689D01*
X0041386Y0067047D01*
X0043911Y0067047D01*
X0044416Y0067182D01*
X0044869Y0067444D01*
X0045238Y0067813D01*
X0045499Y0068266D01*
X0045634Y0068770D01*
X0045634Y0071689D01*
X0041387Y0071689D01*
X0041387Y0072280D01*
X0041386Y0072280D02*
X0040796Y0072280D01*
X0040796Y0076921D01*
X0040747Y0076921D01*
X0040747Y0079935D01*
X0040845Y0079935D01*
X0040845Y0075874D01*
X0041386Y0075874D01*
X0041386Y0072280D01*
X0041387Y0072280D02*
X0045634Y0072280D01*
X0045634Y0075198D01*
X0045499Y0075703D01*
X0045238Y0076155D01*
X0044869Y0076525D01*
X0044505Y0076735D01*
X0044712Y0077092D01*
X0044847Y0077597D01*
X0044847Y0079935D01*
X0040845Y0079935D01*
X0040845Y0080033D01*
X0044847Y0080033D01*
X0044847Y0082371D01*
X0044712Y0082876D01*
X0044451Y0083329D01*
X0044081Y0083698D01*
X0043629Y0083959D01*
X0043124Y0084094D01*
X0041379Y0084094D01*
X0043535Y0086251D01*
X0043535Y0089717D01*
X0042701Y0090551D01*
X0065296Y0090551D01*
X0065296Y0052088D01*
X0062416Y0054968D01*
X0060367Y0054968D01*
X0060367Y0050000D01*
X0060335Y0050000D01*
X0060335Y0049968D01*
X0060367Y0049968D01*
X0060367Y0045000D01*
X0062416Y0045000D01*
X0065296Y0047880D01*
X0065296Y0042088D01*
X0062416Y0044968D01*
X0060367Y0044968D01*
X0060367Y0040000D01*
X0060335Y0040000D01*
X0060335Y0039968D01*
X0060367Y0039968D01*
X0060367Y0035000D01*
X0062416Y0035000D01*
X0065296Y0037880D01*
X0065296Y0032088D01*
X0062416Y0034968D01*
X0060367Y0034968D01*
X0060367Y0030000D01*
X0060335Y0030000D01*
X0060335Y0034968D01*
X0058286Y0034968D01*
X0057435Y0034117D01*
X0057435Y0035848D01*
X0056214Y0037068D01*
X0054935Y0038348D01*
X0054935Y0041883D01*
X0052250Y0044568D01*
X0048452Y0044568D01*
X0047735Y0043852D01*
X0047735Y0046117D01*
X0048452Y0045400D01*
X0052250Y0045400D01*
X0054935Y0048085D01*
X0054935Y0051883D01*
X0052250Y0054568D01*
X0048452Y0054568D01*
X0045767Y0051883D01*
X0045767Y0050732D01*
X0043863Y0052635D01*
X0040839Y0052635D01*
X0038700Y0050497D01*
X0038700Y0047472D01*
X0040839Y0045333D01*
X0043055Y0045333D01*
X0043567Y0044821D01*
X0043567Y0031148D01*
X0041488Y0029068D01*
X0027336Y0029068D01*
X0026381Y0030023D01*
X0025064Y0030568D01*
X0023638Y0030568D01*
X0022321Y0030023D01*
X0022134Y0029836D01*
X0021891Y0030079D01*
X0021238Y0030515D01*
X0020513Y0030815D01*
X0019743Y0030968D01*
X0019351Y0030968D01*
X0019351Y0026984D01*
X0019351Y0026984D01*
X0019351Y0027555D02*
X0019351Y0027555D01*
X0019351Y0029522D02*
X0019351Y0029522D01*
X0018667Y0035424D02*
X0013738Y0035424D01*
X0011771Y0033456D02*
X0043567Y0033456D01*
X0043567Y0031489D02*
X0011435Y0031489D01*
X0007843Y0035424D02*
X0007435Y0035424D01*
X0007435Y0035016D02*
X0007435Y0068683D01*
X0008533Y0068683D01*
X0010100Y0067116D01*
X0013125Y0067116D01*
X0013643Y0067634D01*
X0013761Y0067516D01*
X0013752Y0067500D01*
X0013617Y0066995D01*
X0013617Y0063584D01*
X0013617Y0060173D01*
X0013752Y0059668D01*
X0014013Y0059216D01*
X0014383Y0058846D01*
X0014835Y0058585D01*
X0015340Y0058450D01*
X0017251Y0058450D01*
X0017251Y0063584D01*
X0017251Y0063584D01*
X0017251Y0058450D01*
X0019162Y0058450D01*
X0019667Y0058585D01*
X0020119Y0058846D01*
X0020489Y0059216D01*
X0020750Y0059668D01*
X0020885Y0060173D01*
X0020885Y0063584D01*
X0017251Y0063584D01*
X0013617Y0063584D01*
X0017251Y0063584D01*
X0017251Y0063584D01*
X0017251Y0063584D01*
X0020885Y0063584D01*
X0020885Y0066995D01*
X0020842Y0067157D01*
X0020936Y0067182D01*
X0021388Y0067444D01*
X0021634Y0067689D01*
X0021876Y0067447D01*
X0023007Y0067447D01*
X0023007Y0063981D01*
X0023117Y0063871D01*
X0023117Y0059778D01*
X0024045Y0058850D01*
X0024267Y0058850D01*
X0024267Y0043118D01*
X0019595Y0043118D01*
X0018667Y0042190D01*
X0018667Y0040468D01*
X0012888Y0040468D01*
X0007435Y0035016D01*
X0007435Y0037391D02*
X0009810Y0037391D01*
X0011777Y0039358D02*
X0007435Y0039358D01*
X0007435Y0041325D02*
X0018667Y0041325D01*
X0024267Y0043292D02*
X0007435Y0043292D01*
X0007435Y0045259D02*
X0024267Y0045259D01*
X0024267Y0047226D02*
X0007435Y0047226D01*
X0007435Y0049193D02*
X0024267Y0049193D01*
X0024267Y0051160D02*
X0007435Y0051160D01*
X0007435Y0053127D02*
X0024267Y0053127D01*
X0024267Y0055094D02*
X0007435Y0055094D01*
X0007435Y0057061D02*
X0024267Y0057061D01*
X0023867Y0059028D02*
X0020301Y0059028D01*
X0020885Y0060995D02*
X0023117Y0060995D01*
X0023117Y0062962D02*
X0020885Y0062962D01*
X0020885Y0064929D02*
X0023007Y0064929D01*
X0023007Y0066896D02*
X0020885Y0066896D01*
X0017251Y0062962D02*
X0017251Y0062962D01*
X0017251Y0060995D02*
X0017251Y0060995D01*
X0017251Y0059028D02*
X0017251Y0059028D01*
X0014201Y0059028D02*
X0007435Y0059028D01*
X0007435Y0060995D02*
X0013617Y0060995D01*
X0013617Y0062962D02*
X0007435Y0062962D01*
X0007435Y0064929D02*
X0013617Y0064929D01*
X0013617Y0066896D02*
X0007435Y0066896D01*
X0004304Y0071885D02*
X0004304Y0090551D01*
X0006001Y0090551D01*
X0005167Y0089717D01*
X0005167Y0086251D01*
X0007618Y0083800D01*
X0011084Y0083800D01*
X0013535Y0086251D01*
X0013535Y0089717D01*
X0012701Y0090551D01*
X0036001Y0090551D01*
X0035167Y0089717D01*
X0035167Y0086748D01*
X0033767Y0085348D01*
X0032114Y0083694D01*
X0031183Y0083694D01*
X0030255Y0082766D01*
X0030255Y0077202D01*
X0030936Y0076521D01*
X0030396Y0076521D01*
X0029468Y0075593D01*
X0029468Y0068375D01*
X0030396Y0067447D01*
X0032274Y0067447D01*
X0032217Y0067390D01*
X0032217Y0060068D01*
X0029585Y0060068D01*
X0029585Y0067390D01*
X0028917Y0068058D01*
X0029234Y0068375D01*
X0029234Y0075593D01*
X0028306Y0076521D01*
X0027766Y0076521D01*
X0028447Y0077202D01*
X0028447Y0082766D01*
X0027519Y0083694D01*
X0022073Y0083694D01*
X0021614Y0083236D01*
X0021561Y0083329D01*
X0021191Y0083698D01*
X0020739Y0083959D01*
X0020234Y0084094D01*
X0017955Y0084094D01*
X0017955Y0080034D01*
X0017857Y0080034D01*
X0017857Y0084094D01*
X0015578Y0084094D01*
X0015073Y0083959D01*
X0014621Y0083698D01*
X0014251Y0083329D01*
X0013990Y0082876D01*
X0013855Y0082371D01*
X0013855Y0080033D01*
X0017857Y0080033D01*
X0017857Y0079935D01*
X0017955Y0079935D01*
X0017955Y0076921D01*
X0017906Y0076921D01*
X0017906Y0072280D01*
X0017316Y0072280D01*
X0017316Y0075874D01*
X0017857Y0075874D01*
X0017857Y0079935D01*
X0013855Y0079935D01*
X0013855Y0077597D01*
X0013990Y0077092D01*
X0014197Y0076735D01*
X0013833Y0076525D01*
X0013464Y0076155D01*
X0013203Y0075703D01*
X0013068Y0075198D01*
X0013068Y0074418D01*
X0011702Y0074418D01*
X0013535Y0076251D01*
X0013535Y0079717D01*
X0011084Y0082168D01*
X0007618Y0082168D01*
X0005167Y0079717D01*
X0005167Y0076251D01*
X0007618Y0073800D01*
X0009482Y0073800D01*
X0008533Y0072851D01*
X0005270Y0072851D01*
X0004304Y0071885D01*
X0004304Y0072797D02*
X0005216Y0072797D01*
X0004304Y0074764D02*
X0006654Y0074764D01*
X0005167Y0076731D02*
X0004304Y0076731D01*
X0004304Y0078698D02*
X0005167Y0078698D01*
X0004304Y0080665D02*
X0006114Y0080665D01*
X0004304Y0082632D02*
X0013925Y0082632D01*
X0013855Y0080665D02*
X0012588Y0080665D01*
X0013535Y0078698D02*
X0013855Y0078698D01*
X0013535Y0076731D02*
X0014190Y0076731D01*
X0013068Y0074764D02*
X0012048Y0074764D01*
X0017316Y0074764D02*
X0017906Y0074764D01*
X0017857Y0076731D02*
X0017906Y0076731D01*
X0017857Y0078698D02*
X0017955Y0078698D01*
X0017955Y0080665D02*
X0017857Y0080665D01*
X0017857Y0082632D02*
X0017955Y0082632D01*
X0013535Y0086566D02*
X0034985Y0086566D01*
X0035167Y0088533D02*
X0013535Y0088533D01*
X0012753Y0090500D02*
X0035949Y0090500D01*
X0033018Y0084599D02*
X0011883Y0084599D01*
X0006819Y0084599D02*
X0004304Y0084599D01*
X0004304Y0086566D02*
X0005167Y0086566D01*
X0005167Y0088533D02*
X0004304Y0088533D01*
X0004304Y0090500D02*
X0005949Y0090500D01*
X0017316Y0072797D02*
X0017906Y0072797D01*
X0027976Y0076731D02*
X0030726Y0076731D01*
X0030255Y0078698D02*
X0028447Y0078698D01*
X0028447Y0080665D02*
X0030255Y0080665D01*
X0030255Y0082632D02*
X0028447Y0082632D01*
X0029234Y0074764D02*
X0029468Y0074764D01*
X0029468Y0072797D02*
X0029234Y0072797D01*
X0029234Y0070830D02*
X0029468Y0070830D01*
X0029468Y0068863D02*
X0029234Y0068863D01*
X0029585Y0066896D02*
X0032217Y0066896D01*
X0032217Y0064929D02*
X0029585Y0064929D01*
X0029585Y0062962D02*
X0032217Y0062962D01*
X0032217Y0060995D02*
X0029585Y0060995D01*
X0028435Y0055094D02*
X0065296Y0055094D01*
X0065296Y0057061D02*
X0049635Y0057061D01*
X0051602Y0059028D02*
X0065296Y0059028D01*
X0065296Y0060995D02*
X0053569Y0060995D01*
X0051608Y0064929D02*
X0038685Y0064929D01*
X0038685Y0066896D02*
X0052405Y0066896D01*
X0053326Y0068863D02*
X0045634Y0068863D01*
X0045634Y0070830D02*
X0065296Y0070830D01*
X0065296Y0068863D02*
X0058786Y0068863D01*
X0059707Y0066896D02*
X0065296Y0066896D01*
X0065296Y0064929D02*
X0059707Y0064929D01*
X0057752Y0062962D02*
X0065296Y0062962D01*
X0060335Y0054968D02*
X0058286Y0054968D01*
X0055367Y0052049D01*
X0055367Y0050000D01*
X0060335Y0050000D01*
X0060335Y0054968D01*
X0060335Y0053127D02*
X0060367Y0053127D01*
X0060335Y0051160D02*
X0060367Y0051160D01*
X0060335Y0049968D02*
X0055367Y0049968D01*
X0055367Y0047920D01*
X0058286Y0045000D01*
X0060335Y0045000D01*
X0060335Y0049968D01*
X0060335Y0049193D02*
X0060367Y0049193D01*
X0060335Y0047226D02*
X0060367Y0047226D01*
X0060335Y0045259D02*
X0060367Y0045259D01*
X0060335Y0044968D02*
X0058286Y0044968D01*
X0055367Y0042049D01*
X0055367Y0040000D01*
X0060335Y0040000D01*
X0060335Y0044968D01*
X0060335Y0043292D02*
X0060367Y0043292D01*
X0060335Y0041325D02*
X0060367Y0041325D01*
X0060335Y0039968D02*
X0055367Y0039968D01*
X0055367Y0037920D01*
X0058286Y0035000D01*
X0060335Y0035000D01*
X0060335Y0039968D01*
X0060335Y0039358D02*
X0060367Y0039358D01*
X0060335Y0037391D02*
X0060367Y0037391D01*
X0060335Y0035424D02*
X0060367Y0035424D01*
X0060335Y0033456D02*
X0060367Y0033456D01*
X0060335Y0031489D02*
X0060367Y0031489D01*
X0060335Y0029522D02*
X0060367Y0029522D01*
X0060335Y0027555D02*
X0060367Y0027555D01*
X0060335Y0025588D02*
X0060367Y0025588D01*
X0060335Y0023621D02*
X0060367Y0023621D01*
X0060335Y0021654D02*
X0060367Y0021654D01*
X0060335Y0019687D02*
X0060367Y0019687D01*
X0060335Y0017720D02*
X0060367Y0017720D01*
X0060335Y0015753D02*
X0060367Y0015753D01*
X0060335Y0013786D02*
X0060367Y0013786D01*
X0060335Y0011819D02*
X0060367Y0011819D01*
X0060335Y0009852D02*
X0060367Y0009852D01*
X0060335Y0007885D02*
X0060367Y0007885D01*
X0060335Y0005918D02*
X0060367Y0005918D01*
X0063334Y0005918D02*
X0065296Y0005918D01*
X0065296Y0013786D02*
X0063598Y0013786D01*
X0063169Y0015753D02*
X0065296Y0015753D01*
X0065296Y0017720D02*
X0065136Y0017720D01*
X0065296Y0023621D02*
X0063763Y0023621D01*
X0063004Y0025588D02*
X0065296Y0025588D01*
X0065296Y0027555D02*
X0064971Y0027555D01*
X0065296Y0033456D02*
X0063928Y0033456D01*
X0062839Y0035424D02*
X0065296Y0035424D01*
X0065296Y0037391D02*
X0064806Y0037391D01*
X0065296Y0043292D02*
X0064092Y0043292D01*
X0065296Y0045259D02*
X0062674Y0045259D01*
X0064641Y0047226D02*
X0065296Y0047226D01*
X0065296Y0053127D02*
X0064257Y0053127D01*
X0058028Y0045259D02*
X0047735Y0045259D01*
X0043129Y0045259D02*
X0028435Y0045259D01*
X0028435Y0047226D02*
X0038946Y0047226D01*
X0038700Y0049193D02*
X0028435Y0049193D01*
X0028435Y0051160D02*
X0039363Y0051160D01*
X0045339Y0051160D02*
X0045767Y0051160D01*
X0047010Y0053127D02*
X0028435Y0053127D01*
X0028435Y0043292D02*
X0043567Y0043292D01*
X0043567Y0041325D02*
X0041928Y0041325D01*
X0041084Y0042168D02*
X0037618Y0042168D01*
X0035167Y0039717D01*
X0035167Y0036251D01*
X0037618Y0033800D01*
X0041084Y0033800D01*
X0043535Y0036251D01*
X0043535Y0039717D01*
X0041084Y0042168D01*
X0043535Y0039358D02*
X0043567Y0039358D01*
X0043535Y0037391D02*
X0043567Y0037391D01*
X0043567Y0035424D02*
X0042708Y0035424D01*
X0041942Y0029522D02*
X0026882Y0029522D01*
X0034035Y0035424D02*
X0035994Y0035424D01*
X0035167Y0037391D02*
X0034035Y0037391D01*
X0034035Y0039358D02*
X0035167Y0039358D01*
X0034035Y0041325D02*
X0036774Y0041325D01*
X0038685Y0060995D02*
X0047674Y0060995D01*
X0049641Y0062962D02*
X0038685Y0062962D01*
X0040796Y0068863D02*
X0041386Y0068863D01*
X0041386Y0070830D02*
X0040796Y0070830D01*
X0040796Y0072797D02*
X0041386Y0072797D01*
X0041386Y0074764D02*
X0040796Y0074764D01*
X0040796Y0076731D02*
X0040845Y0076731D01*
X0040845Y0078698D02*
X0040747Y0078698D01*
X0044847Y0078698D02*
X0065296Y0078698D01*
X0065296Y0080665D02*
X0044847Y0080665D01*
X0044777Y0082632D02*
X0065296Y0082632D01*
X0065296Y0084599D02*
X0041883Y0084599D01*
X0043535Y0086566D02*
X0065296Y0086566D01*
X0065296Y0088533D02*
X0043535Y0088533D01*
X0042753Y0090500D02*
X0065296Y0090500D01*
X0065296Y0076731D02*
X0044512Y0076731D01*
X0045634Y0074764D02*
X0065296Y0074764D01*
X0065296Y0072797D02*
X0045634Y0072797D01*
X0053692Y0053127D02*
X0056445Y0053127D01*
X0055367Y0051160D02*
X0054935Y0051160D01*
X0054935Y0049193D02*
X0055367Y0049193D01*
X0056061Y0047226D02*
X0054075Y0047226D01*
X0053527Y0043292D02*
X0056610Y0043292D01*
X0055367Y0041325D02*
X0054935Y0041325D01*
X0054935Y0039358D02*
X0055367Y0039358D01*
X0055892Y0037391D02*
X0055896Y0037391D01*
X0057435Y0035424D02*
X0057863Y0035424D01*
X0057698Y0025588D02*
X0054903Y0025588D01*
X0053197Y0023621D02*
X0056939Y0023621D01*
X0055367Y0021654D02*
X0054935Y0021654D01*
X0054935Y0019687D02*
X0055367Y0019687D01*
X0055566Y0017720D02*
X0054570Y0017720D01*
X0052603Y0015753D02*
X0057533Y0015753D01*
X0057104Y0013786D02*
X0053032Y0013786D01*
X0054935Y0011819D02*
X0055367Y0011819D01*
X0055367Y0009852D02*
X0054935Y0009852D01*
X0054735Y0007885D02*
X0055401Y0007885D01*
X0057368Y0005918D02*
X0052768Y0005918D01*
X0047934Y0005918D02*
X0004304Y0005918D01*
X0004304Y0007885D02*
X0045967Y0007885D01*
X0045767Y0009852D02*
X0004304Y0009852D01*
X0004304Y0011819D02*
X0045767Y0011819D01*
X0045767Y0021654D02*
X0044969Y0021654D01*
M02*
