G75*
%MOIN*%
%OFA0B0*%
%FSLAX25Y25*%
%IPPOS*%
%LPD*%
%AMOC8*
5,1,8,0,0,1.08239X$1,22.5*
%
%ADD10C,0.00400*%
%ADD11C,0.00300*%
%ADD12C,0.00600*%
%ADD13C,0.00200*%
%ADD14C,0.00500*%
%ADD15R,0.00591X0.01181*%
%ADD16R,0.01181X0.01181*%
D10*
X0008425Y0006121D02*
X0008425Y0008921D01*
X0009358Y0007366D01*
X0010292Y0008921D01*
X0010292Y0006121D01*
X0011585Y0006121D02*
X0011740Y0006121D01*
X0011740Y0006277D01*
X0011585Y0006277D01*
X0011585Y0006121D01*
X0013033Y0006121D02*
X0013033Y0008921D01*
X0013966Y0007366D01*
X0014900Y0008921D01*
X0014900Y0006121D01*
X0016193Y0006121D02*
X0016348Y0006121D01*
X0016348Y0006277D01*
X0016193Y0006277D01*
X0016193Y0006121D01*
X0019045Y0006121D02*
X0020600Y0006121D01*
X0023247Y0006510D02*
X0023287Y0006596D01*
X0023323Y0006684D01*
X0023356Y0006774D01*
X0023385Y0006864D01*
X0023410Y0006956D01*
X0023431Y0007049D01*
X0023449Y0007142D01*
X0023462Y0007236D01*
X0023472Y0007331D01*
X0023478Y0007426D01*
X0023480Y0007521D01*
X0021925Y0007521D02*
X0021927Y0007616D01*
X0021933Y0007711D01*
X0021943Y0007806D01*
X0021956Y0007900D01*
X0021974Y0007993D01*
X0021995Y0008086D01*
X0022020Y0008178D01*
X0022049Y0008268D01*
X0022082Y0008358D01*
X0022118Y0008446D01*
X0022158Y0008532D01*
X0022702Y0008922D02*
X0022747Y0008920D01*
X0022791Y0008915D01*
X0022835Y0008906D01*
X0022878Y0008895D01*
X0022920Y0008879D01*
X0022960Y0008861D01*
X0022999Y0008839D01*
X0023037Y0008815D01*
X0023072Y0008787D01*
X0023105Y0008757D01*
X0023136Y0008725D01*
X0023164Y0008690D01*
X0023189Y0008653D01*
X0023211Y0008615D01*
X0023231Y0008574D01*
X0023247Y0008533D01*
X0023325Y0008299D02*
X0022080Y0006743D01*
X0022702Y0006121D02*
X0022747Y0006123D01*
X0022791Y0006128D01*
X0022835Y0006137D01*
X0022878Y0006148D01*
X0022920Y0006164D01*
X0022960Y0006182D01*
X0022999Y0006204D01*
X0023037Y0006228D01*
X0023072Y0006256D01*
X0023105Y0006286D01*
X0023136Y0006318D01*
X0023164Y0006353D01*
X0023189Y0006390D01*
X0023211Y0006428D01*
X0023231Y0006469D01*
X0023247Y0006510D01*
X0022702Y0006121D02*
X0022657Y0006123D01*
X0022613Y0006128D01*
X0022569Y0006137D01*
X0022526Y0006148D01*
X0022484Y0006164D01*
X0022444Y0006182D01*
X0022405Y0006204D01*
X0022367Y0006228D01*
X0022332Y0006256D01*
X0022299Y0006286D01*
X0022268Y0006318D01*
X0022240Y0006353D01*
X0022215Y0006390D01*
X0022193Y0006428D01*
X0022173Y0006469D01*
X0022157Y0006510D01*
X0023480Y0007521D02*
X0023478Y0007616D01*
X0023472Y0007711D01*
X0023462Y0007806D01*
X0023449Y0007900D01*
X0023431Y0007993D01*
X0023410Y0008086D01*
X0023385Y0008178D01*
X0023356Y0008268D01*
X0023323Y0008358D01*
X0023287Y0008446D01*
X0023247Y0008532D01*
X0022702Y0008922D02*
X0022657Y0008920D01*
X0022613Y0008915D01*
X0022569Y0008906D01*
X0022526Y0008895D01*
X0022484Y0008879D01*
X0022444Y0008861D01*
X0022405Y0008839D01*
X0022367Y0008815D01*
X0022332Y0008787D01*
X0022299Y0008757D01*
X0022268Y0008725D01*
X0022240Y0008690D01*
X0022215Y0008653D01*
X0022193Y0008615D01*
X0022173Y0008574D01*
X0022157Y0008533D01*
X0020367Y0007677D02*
X0019045Y0006121D01*
X0019045Y0008299D02*
X0019064Y0008352D01*
X0019086Y0008404D01*
X0019112Y0008454D01*
X0019141Y0008503D01*
X0019172Y0008550D01*
X0019207Y0008595D01*
X0019244Y0008637D01*
X0019284Y0008677D01*
X0019327Y0008714D01*
X0019371Y0008749D01*
X0019418Y0008781D01*
X0019467Y0008810D01*
X0019517Y0008835D01*
X0019569Y0008858D01*
X0019622Y0008877D01*
X0019676Y0008893D01*
X0019731Y0008905D01*
X0019787Y0008914D01*
X0019844Y0008919D01*
X0019900Y0008921D01*
X0019950Y0008919D01*
X0020000Y0008914D01*
X0020049Y0008905D01*
X0020097Y0008893D01*
X0020145Y0008877D01*
X0020191Y0008858D01*
X0020235Y0008835D01*
X0020278Y0008810D01*
X0020319Y0008781D01*
X0020358Y0008750D01*
X0020395Y0008716D01*
X0020429Y0008679D01*
X0020460Y0008640D01*
X0020489Y0008599D01*
X0020514Y0008556D01*
X0020537Y0008512D01*
X0020556Y0008466D01*
X0020572Y0008418D01*
X0020584Y0008370D01*
X0020593Y0008321D01*
X0020598Y0008271D01*
X0020600Y0008221D01*
X0020598Y0008170D01*
X0020593Y0008120D01*
X0020585Y0008070D01*
X0020573Y0008020D01*
X0020558Y0007972D01*
X0020539Y0007925D01*
X0020518Y0007879D01*
X0020493Y0007834D01*
X0020466Y0007792D01*
X0020435Y0007751D01*
X0020402Y0007713D01*
X0020367Y0007676D01*
X0021925Y0007521D02*
X0021927Y0007426D01*
X0021933Y0007331D01*
X0021943Y0007236D01*
X0021956Y0007142D01*
X0021974Y0007049D01*
X0021995Y0006956D01*
X0022020Y0006864D01*
X0022049Y0006774D01*
X0022082Y0006684D01*
X0022118Y0006596D01*
X0022158Y0006510D01*
X0024805Y0006121D02*
X0026360Y0006121D01*
X0025582Y0006121D02*
X0025582Y0008921D01*
X0024805Y0008299D01*
X0027840Y0008299D02*
X0027842Y0008250D01*
X0027848Y0008202D01*
X0027857Y0008154D01*
X0027870Y0008107D01*
X0027887Y0008061D01*
X0027908Y0008017D01*
X0027932Y0007974D01*
X0027959Y0007933D01*
X0027989Y0007895D01*
X0028022Y0007859D01*
X0028058Y0007826D01*
X0028096Y0007796D01*
X0028137Y0007769D01*
X0028180Y0007745D01*
X0028224Y0007724D01*
X0028270Y0007707D01*
X0028317Y0007694D01*
X0028365Y0007685D01*
X0028413Y0007679D01*
X0028462Y0007677D01*
X0028511Y0007679D01*
X0028559Y0007685D01*
X0028607Y0007694D01*
X0028654Y0007707D01*
X0028700Y0007724D01*
X0028744Y0007745D01*
X0028787Y0007769D01*
X0028828Y0007796D01*
X0028866Y0007826D01*
X0028902Y0007859D01*
X0028935Y0007895D01*
X0028965Y0007933D01*
X0028992Y0007974D01*
X0029016Y0008017D01*
X0029037Y0008061D01*
X0029054Y0008107D01*
X0029067Y0008154D01*
X0029076Y0008202D01*
X0029082Y0008250D01*
X0029084Y0008299D01*
X0029082Y0008348D01*
X0029076Y0008396D01*
X0029067Y0008444D01*
X0029054Y0008491D01*
X0029037Y0008537D01*
X0029016Y0008581D01*
X0028992Y0008624D01*
X0028965Y0008665D01*
X0028935Y0008703D01*
X0028902Y0008739D01*
X0028866Y0008772D01*
X0028828Y0008802D01*
X0028787Y0008829D01*
X0028744Y0008853D01*
X0028700Y0008874D01*
X0028654Y0008891D01*
X0028607Y0008904D01*
X0028559Y0008913D01*
X0028511Y0008919D01*
X0028462Y0008921D01*
X0028413Y0008919D01*
X0028365Y0008913D01*
X0028317Y0008904D01*
X0028270Y0008891D01*
X0028224Y0008874D01*
X0028180Y0008853D01*
X0028137Y0008829D01*
X0028096Y0008802D01*
X0028058Y0008772D01*
X0028022Y0008739D01*
X0027989Y0008703D01*
X0027959Y0008665D01*
X0027932Y0008624D01*
X0027908Y0008581D01*
X0027887Y0008537D01*
X0027870Y0008491D01*
X0027857Y0008444D01*
X0027848Y0008396D01*
X0027842Y0008348D01*
X0027840Y0008299D01*
X0027684Y0006899D02*
X0027686Y0006843D01*
X0027692Y0006788D01*
X0027702Y0006734D01*
X0027716Y0006680D01*
X0027733Y0006627D01*
X0027754Y0006576D01*
X0027779Y0006526D01*
X0027808Y0006478D01*
X0027839Y0006433D01*
X0027874Y0006390D01*
X0027912Y0006349D01*
X0027953Y0006311D01*
X0027996Y0006276D01*
X0028041Y0006245D01*
X0028089Y0006216D01*
X0028139Y0006191D01*
X0028190Y0006170D01*
X0028243Y0006153D01*
X0028297Y0006139D01*
X0028351Y0006129D01*
X0028406Y0006123D01*
X0028462Y0006121D01*
X0028518Y0006123D01*
X0028573Y0006129D01*
X0028627Y0006139D01*
X0028681Y0006153D01*
X0028734Y0006170D01*
X0028785Y0006191D01*
X0028835Y0006216D01*
X0028883Y0006245D01*
X0028928Y0006276D01*
X0028971Y0006311D01*
X0029012Y0006349D01*
X0029050Y0006390D01*
X0029085Y0006433D01*
X0029116Y0006478D01*
X0029145Y0006526D01*
X0029170Y0006576D01*
X0029191Y0006627D01*
X0029208Y0006680D01*
X0029222Y0006734D01*
X0029232Y0006788D01*
X0029238Y0006843D01*
X0029240Y0006899D01*
X0029238Y0006955D01*
X0029232Y0007010D01*
X0029222Y0007064D01*
X0029208Y0007118D01*
X0029191Y0007171D01*
X0029170Y0007222D01*
X0029145Y0007272D01*
X0029116Y0007320D01*
X0029085Y0007365D01*
X0029050Y0007408D01*
X0029012Y0007449D01*
X0028971Y0007487D01*
X0028928Y0007522D01*
X0028883Y0007553D01*
X0028835Y0007582D01*
X0028785Y0007607D01*
X0028734Y0007628D01*
X0028681Y0007645D01*
X0028627Y0007659D01*
X0028573Y0007669D01*
X0028518Y0007675D01*
X0028462Y0007677D01*
X0028406Y0007675D01*
X0028351Y0007669D01*
X0028297Y0007659D01*
X0028243Y0007645D01*
X0028190Y0007628D01*
X0028139Y0007607D01*
X0028089Y0007582D01*
X0028041Y0007553D01*
X0027996Y0007522D01*
X0027953Y0007487D01*
X0027912Y0007449D01*
X0027874Y0007408D01*
X0027839Y0007365D01*
X0027808Y0007320D01*
X0027779Y0007272D01*
X0027754Y0007222D01*
X0027733Y0007171D01*
X0027716Y0007118D01*
X0027702Y0007064D01*
X0027692Y0007010D01*
X0027686Y0006955D01*
X0027684Y0006899D01*
D11*
X0033966Y0008040D02*
X0033966Y0010940D01*
X0034771Y0010940D01*
X0034771Y0010939D02*
X0034820Y0010937D01*
X0034869Y0010931D01*
X0034918Y0010922D01*
X0034965Y0010909D01*
X0035012Y0010892D01*
X0035057Y0010872D01*
X0035100Y0010849D01*
X0035142Y0010822D01*
X0035181Y0010792D01*
X0035218Y0010759D01*
X0035252Y0010723D01*
X0035283Y0010685D01*
X0035312Y0010645D01*
X0035337Y0010603D01*
X0035359Y0010558D01*
X0035377Y0010513D01*
X0035392Y0010466D01*
X0035403Y0010418D01*
X0035411Y0010369D01*
X0035415Y0010320D01*
X0035415Y0010270D01*
X0035411Y0010221D01*
X0035403Y0010172D01*
X0035392Y0010124D01*
X0035377Y0010077D01*
X0035359Y0010032D01*
X0035337Y0009987D01*
X0035312Y0009945D01*
X0035283Y0009905D01*
X0035252Y0009867D01*
X0035218Y0009831D01*
X0035181Y0009798D01*
X0035142Y0009768D01*
X0035100Y0009741D01*
X0035057Y0009718D01*
X0035012Y0009698D01*
X0034965Y0009681D01*
X0034918Y0009668D01*
X0034869Y0009659D01*
X0034820Y0009653D01*
X0034771Y0009651D01*
X0033966Y0009651D01*
X0034771Y0009651D02*
X0034826Y0009649D01*
X0034881Y0009643D01*
X0034935Y0009634D01*
X0034988Y0009621D01*
X0035041Y0009604D01*
X0035092Y0009584D01*
X0035142Y0009561D01*
X0035190Y0009534D01*
X0035236Y0009503D01*
X0035280Y0009470D01*
X0035321Y0009434D01*
X0035360Y0009395D01*
X0035396Y0009354D01*
X0035429Y0009310D01*
X0035460Y0009264D01*
X0035487Y0009216D01*
X0035510Y0009166D01*
X0035530Y0009115D01*
X0035547Y0009062D01*
X0035560Y0009009D01*
X0035569Y0008955D01*
X0035575Y0008900D01*
X0035577Y0008845D01*
X0035575Y0008790D01*
X0035569Y0008735D01*
X0035560Y0008681D01*
X0035547Y0008628D01*
X0035530Y0008575D01*
X0035510Y0008524D01*
X0035487Y0008474D01*
X0035460Y0008426D01*
X0035429Y0008380D01*
X0035396Y0008336D01*
X0035360Y0008295D01*
X0035321Y0008256D01*
X0035280Y0008220D01*
X0035236Y0008187D01*
X0035190Y0008156D01*
X0035142Y0008129D01*
X0035092Y0008106D01*
X0035041Y0008086D01*
X0034988Y0008069D01*
X0034935Y0008056D01*
X0034881Y0008047D01*
X0034826Y0008041D01*
X0034771Y0008039D01*
X0034771Y0008040D02*
X0033966Y0008040D01*
X0036511Y0010940D02*
X0038122Y0010940D01*
X0039295Y0010940D02*
X0040906Y0008040D01*
X0040906Y0010940D01*
X0042271Y0010940D02*
X0043238Y0010940D01*
X0043238Y0010939D02*
X0043287Y0010937D01*
X0043336Y0010931D01*
X0043385Y0010922D01*
X0043432Y0010909D01*
X0043479Y0010892D01*
X0043524Y0010872D01*
X0043567Y0010849D01*
X0043609Y0010822D01*
X0043648Y0010792D01*
X0043685Y0010759D01*
X0043719Y0010723D01*
X0043750Y0010685D01*
X0043779Y0010645D01*
X0043804Y0010603D01*
X0043826Y0010558D01*
X0043844Y0010513D01*
X0043859Y0010466D01*
X0043870Y0010418D01*
X0043878Y0010369D01*
X0043882Y0010320D01*
X0043882Y0010270D01*
X0043878Y0010221D01*
X0043870Y0010172D01*
X0043859Y0010124D01*
X0043844Y0010077D01*
X0043826Y0010032D01*
X0043804Y0009987D01*
X0043779Y0009945D01*
X0043750Y0009905D01*
X0043719Y0009867D01*
X0043685Y0009831D01*
X0043648Y0009798D01*
X0043609Y0009768D01*
X0043567Y0009741D01*
X0043524Y0009718D01*
X0043479Y0009698D01*
X0043432Y0009681D01*
X0043385Y0009668D01*
X0043336Y0009659D01*
X0043287Y0009653D01*
X0043238Y0009651D01*
X0042593Y0009651D01*
X0043077Y0009651D02*
X0043132Y0009649D01*
X0043187Y0009643D01*
X0043241Y0009634D01*
X0043294Y0009621D01*
X0043347Y0009604D01*
X0043398Y0009584D01*
X0043448Y0009561D01*
X0043496Y0009534D01*
X0043542Y0009503D01*
X0043586Y0009470D01*
X0043627Y0009434D01*
X0043666Y0009395D01*
X0043702Y0009354D01*
X0043735Y0009310D01*
X0043766Y0009264D01*
X0043793Y0009216D01*
X0043816Y0009166D01*
X0043836Y0009115D01*
X0043853Y0009062D01*
X0043866Y0009009D01*
X0043875Y0008955D01*
X0043881Y0008900D01*
X0043883Y0008845D01*
X0043881Y0008790D01*
X0043875Y0008735D01*
X0043866Y0008681D01*
X0043853Y0008628D01*
X0043836Y0008575D01*
X0043816Y0008524D01*
X0043793Y0008474D01*
X0043766Y0008426D01*
X0043735Y0008380D01*
X0043702Y0008336D01*
X0043666Y0008295D01*
X0043627Y0008256D01*
X0043586Y0008220D01*
X0043542Y0008187D01*
X0043496Y0008156D01*
X0043448Y0008129D01*
X0043398Y0008106D01*
X0043347Y0008086D01*
X0043294Y0008069D01*
X0043241Y0008056D01*
X0043187Y0008047D01*
X0043132Y0008041D01*
X0043077Y0008039D01*
X0043077Y0008040D02*
X0042271Y0008040D01*
X0039295Y0008040D02*
X0039295Y0010940D01*
X0037317Y0010940D02*
X0037317Y0008040D01*
X0037317Y0018040D02*
X0037317Y0020940D01*
X0038122Y0020940D02*
X0036511Y0020940D01*
X0034771Y0020940D02*
X0033966Y0020940D01*
X0033966Y0018040D01*
X0034771Y0018040D01*
X0034771Y0018039D02*
X0034826Y0018041D01*
X0034881Y0018047D01*
X0034935Y0018056D01*
X0034988Y0018069D01*
X0035041Y0018086D01*
X0035092Y0018106D01*
X0035142Y0018129D01*
X0035190Y0018156D01*
X0035236Y0018187D01*
X0035280Y0018220D01*
X0035321Y0018256D01*
X0035360Y0018295D01*
X0035396Y0018336D01*
X0035429Y0018380D01*
X0035460Y0018426D01*
X0035487Y0018474D01*
X0035510Y0018524D01*
X0035530Y0018575D01*
X0035547Y0018628D01*
X0035560Y0018681D01*
X0035569Y0018735D01*
X0035575Y0018790D01*
X0035577Y0018845D01*
X0035575Y0018900D01*
X0035569Y0018955D01*
X0035560Y0019009D01*
X0035547Y0019062D01*
X0035530Y0019115D01*
X0035510Y0019166D01*
X0035487Y0019216D01*
X0035460Y0019264D01*
X0035429Y0019310D01*
X0035396Y0019354D01*
X0035360Y0019395D01*
X0035321Y0019434D01*
X0035280Y0019470D01*
X0035236Y0019503D01*
X0035190Y0019534D01*
X0035142Y0019561D01*
X0035092Y0019584D01*
X0035041Y0019604D01*
X0034988Y0019621D01*
X0034935Y0019634D01*
X0034881Y0019643D01*
X0034826Y0019649D01*
X0034771Y0019651D01*
X0033966Y0019651D01*
X0034771Y0019651D02*
X0034820Y0019653D01*
X0034869Y0019659D01*
X0034918Y0019668D01*
X0034965Y0019681D01*
X0035012Y0019698D01*
X0035057Y0019718D01*
X0035100Y0019741D01*
X0035142Y0019768D01*
X0035181Y0019798D01*
X0035218Y0019831D01*
X0035252Y0019867D01*
X0035283Y0019905D01*
X0035312Y0019945D01*
X0035337Y0019987D01*
X0035359Y0020032D01*
X0035377Y0020077D01*
X0035392Y0020124D01*
X0035403Y0020172D01*
X0035411Y0020221D01*
X0035415Y0020270D01*
X0035415Y0020320D01*
X0035411Y0020369D01*
X0035403Y0020418D01*
X0035392Y0020466D01*
X0035377Y0020513D01*
X0035359Y0020558D01*
X0035337Y0020603D01*
X0035312Y0020645D01*
X0035283Y0020685D01*
X0035252Y0020723D01*
X0035218Y0020759D01*
X0035181Y0020792D01*
X0035142Y0020822D01*
X0035100Y0020849D01*
X0035057Y0020872D01*
X0035012Y0020892D01*
X0034965Y0020909D01*
X0034918Y0020922D01*
X0034869Y0020931D01*
X0034820Y0020937D01*
X0034771Y0020939D01*
X0039295Y0020940D02*
X0039295Y0018040D01*
X0040906Y0018040D02*
X0039295Y0020940D01*
X0040906Y0020940D02*
X0040906Y0018040D01*
X0042271Y0018040D02*
X0043882Y0018040D01*
X0042271Y0018040D02*
X0043641Y0019651D01*
X0043157Y0020939D02*
X0043098Y0020937D01*
X0043040Y0020932D01*
X0042982Y0020922D01*
X0042925Y0020910D01*
X0042869Y0020893D01*
X0042814Y0020874D01*
X0042760Y0020850D01*
X0042708Y0020824D01*
X0042658Y0020794D01*
X0042609Y0020761D01*
X0042563Y0020725D01*
X0042519Y0020686D01*
X0042478Y0020645D01*
X0042439Y0020601D01*
X0042403Y0020555D01*
X0042371Y0020506D01*
X0042341Y0020456D01*
X0042314Y0020404D01*
X0042291Y0020350D01*
X0042271Y0020295D01*
X0043641Y0019651D02*
X0043678Y0019688D01*
X0043712Y0019728D01*
X0043744Y0019770D01*
X0043772Y0019815D01*
X0043798Y0019861D01*
X0043820Y0019908D01*
X0043839Y0019957D01*
X0043855Y0020007D01*
X0043867Y0020058D01*
X0043876Y0020110D01*
X0043881Y0020162D01*
X0043883Y0020215D01*
X0043882Y0020215D02*
X0043880Y0020267D01*
X0043875Y0020318D01*
X0043865Y0020369D01*
X0043853Y0020419D01*
X0043836Y0020468D01*
X0043816Y0020516D01*
X0043793Y0020562D01*
X0043767Y0020607D01*
X0043737Y0020649D01*
X0043705Y0020690D01*
X0043670Y0020728D01*
X0043632Y0020763D01*
X0043591Y0020795D01*
X0043549Y0020825D01*
X0043504Y0020851D01*
X0043458Y0020874D01*
X0043410Y0020894D01*
X0043361Y0020911D01*
X0043311Y0020923D01*
X0043260Y0020933D01*
X0043209Y0020938D01*
X0043157Y0020940D01*
X0043077Y0028040D02*
X0043077Y0030940D01*
X0042271Y0030295D01*
X0040906Y0030940D02*
X0040906Y0028040D01*
X0039295Y0030940D01*
X0039295Y0028040D01*
X0037317Y0028040D02*
X0037317Y0030940D01*
X0038122Y0030940D02*
X0036511Y0030940D01*
X0034771Y0030940D02*
X0033966Y0030940D01*
X0033966Y0028040D01*
X0034771Y0028040D01*
X0034771Y0028039D02*
X0034826Y0028041D01*
X0034881Y0028047D01*
X0034935Y0028056D01*
X0034988Y0028069D01*
X0035041Y0028086D01*
X0035092Y0028106D01*
X0035142Y0028129D01*
X0035190Y0028156D01*
X0035236Y0028187D01*
X0035280Y0028220D01*
X0035321Y0028256D01*
X0035360Y0028295D01*
X0035396Y0028336D01*
X0035429Y0028380D01*
X0035460Y0028426D01*
X0035487Y0028474D01*
X0035510Y0028524D01*
X0035530Y0028575D01*
X0035547Y0028628D01*
X0035560Y0028681D01*
X0035569Y0028735D01*
X0035575Y0028790D01*
X0035577Y0028845D01*
X0035575Y0028900D01*
X0035569Y0028955D01*
X0035560Y0029009D01*
X0035547Y0029062D01*
X0035530Y0029115D01*
X0035510Y0029166D01*
X0035487Y0029216D01*
X0035460Y0029264D01*
X0035429Y0029310D01*
X0035396Y0029354D01*
X0035360Y0029395D01*
X0035321Y0029434D01*
X0035280Y0029470D01*
X0035236Y0029503D01*
X0035190Y0029534D01*
X0035142Y0029561D01*
X0035092Y0029584D01*
X0035041Y0029604D01*
X0034988Y0029621D01*
X0034935Y0029634D01*
X0034881Y0029643D01*
X0034826Y0029649D01*
X0034771Y0029651D01*
X0033966Y0029651D01*
X0034771Y0029651D02*
X0034820Y0029653D01*
X0034869Y0029659D01*
X0034918Y0029668D01*
X0034965Y0029681D01*
X0035012Y0029698D01*
X0035057Y0029718D01*
X0035100Y0029741D01*
X0035142Y0029768D01*
X0035181Y0029798D01*
X0035218Y0029831D01*
X0035252Y0029867D01*
X0035283Y0029905D01*
X0035312Y0029945D01*
X0035337Y0029987D01*
X0035359Y0030032D01*
X0035377Y0030077D01*
X0035392Y0030124D01*
X0035403Y0030172D01*
X0035411Y0030221D01*
X0035415Y0030270D01*
X0035415Y0030320D01*
X0035411Y0030369D01*
X0035403Y0030418D01*
X0035392Y0030466D01*
X0035377Y0030513D01*
X0035359Y0030558D01*
X0035337Y0030603D01*
X0035312Y0030645D01*
X0035283Y0030685D01*
X0035252Y0030723D01*
X0035218Y0030759D01*
X0035181Y0030792D01*
X0035142Y0030822D01*
X0035100Y0030849D01*
X0035057Y0030872D01*
X0035012Y0030892D01*
X0034965Y0030909D01*
X0034918Y0030922D01*
X0034869Y0030931D01*
X0034820Y0030937D01*
X0034771Y0030939D01*
X0033077Y0034040D02*
X0033123Y0034042D01*
X0033169Y0034047D01*
X0033214Y0034056D01*
X0033259Y0034068D01*
X0033302Y0034084D01*
X0033344Y0034103D01*
X0033385Y0034126D01*
X0033423Y0034151D01*
X0033460Y0034179D01*
X0033494Y0034210D01*
X0033526Y0034244D01*
X0033555Y0034280D01*
X0033581Y0034318D01*
X0033604Y0034358D01*
X0033624Y0034400D01*
X0033641Y0034443D01*
X0033077Y0034040D02*
X0033031Y0034042D01*
X0032985Y0034047D01*
X0032940Y0034056D01*
X0032895Y0034068D01*
X0032852Y0034084D01*
X0032810Y0034103D01*
X0032769Y0034126D01*
X0032731Y0034151D01*
X0032694Y0034179D01*
X0032660Y0034210D01*
X0032628Y0034244D01*
X0032599Y0034280D01*
X0032573Y0034318D01*
X0032550Y0034358D01*
X0032530Y0034400D01*
X0032513Y0034443D01*
X0032432Y0034684D02*
X0033721Y0036295D01*
X0033641Y0036537D02*
X0033624Y0036580D01*
X0033604Y0036622D01*
X0033581Y0036662D01*
X0033555Y0036700D01*
X0033526Y0036736D01*
X0033494Y0036770D01*
X0033460Y0036801D01*
X0033423Y0036829D01*
X0033385Y0036854D01*
X0033344Y0036877D01*
X0033302Y0036896D01*
X0033259Y0036912D01*
X0033214Y0036924D01*
X0033169Y0036933D01*
X0033123Y0036938D01*
X0033077Y0036940D01*
X0033031Y0036938D01*
X0032985Y0036933D01*
X0032940Y0036924D01*
X0032895Y0036912D01*
X0032852Y0036896D01*
X0032810Y0036877D01*
X0032769Y0036854D01*
X0032731Y0036829D01*
X0032694Y0036801D01*
X0032660Y0036770D01*
X0032628Y0036736D01*
X0032599Y0036700D01*
X0032573Y0036662D01*
X0032550Y0036622D01*
X0032530Y0036580D01*
X0032513Y0036537D01*
X0033641Y0036537D02*
X0033679Y0036455D01*
X0033714Y0036372D01*
X0033746Y0036287D01*
X0033775Y0036202D01*
X0033800Y0036115D01*
X0033822Y0036027D01*
X0033840Y0035939D01*
X0033856Y0035850D01*
X0033868Y0035760D01*
X0033876Y0035671D01*
X0033881Y0035580D01*
X0033883Y0035490D01*
X0032271Y0035490D02*
X0032273Y0035580D01*
X0032278Y0035671D01*
X0032286Y0035760D01*
X0032298Y0035850D01*
X0032314Y0035939D01*
X0032332Y0036027D01*
X0032354Y0036115D01*
X0032379Y0036202D01*
X0032408Y0036287D01*
X0032440Y0036372D01*
X0032475Y0036455D01*
X0032513Y0036537D01*
X0033883Y0035490D02*
X0033881Y0035400D01*
X0033876Y0035309D01*
X0033868Y0035220D01*
X0033856Y0035130D01*
X0033840Y0035041D01*
X0033822Y0034953D01*
X0033800Y0034865D01*
X0033775Y0034778D01*
X0033746Y0034693D01*
X0033714Y0034608D01*
X0033679Y0034525D01*
X0033641Y0034443D01*
X0032513Y0034443D02*
X0032475Y0034525D01*
X0032440Y0034608D01*
X0032408Y0034693D01*
X0032379Y0034778D01*
X0032354Y0034865D01*
X0032332Y0034953D01*
X0032314Y0035041D01*
X0032298Y0035130D01*
X0032286Y0035220D01*
X0032278Y0035309D01*
X0032273Y0035400D01*
X0032271Y0035490D01*
X0030906Y0034040D02*
X0030906Y0036940D01*
X0029295Y0036940D02*
X0030906Y0034040D01*
X0029295Y0034040D02*
X0029295Y0036940D01*
X0028122Y0036940D02*
X0026511Y0036940D01*
X0027317Y0036940D02*
X0027317Y0034040D01*
X0024771Y0034040D02*
X0023966Y0034040D01*
X0023966Y0036940D01*
X0024771Y0036940D01*
X0024771Y0036939D02*
X0024820Y0036937D01*
X0024869Y0036931D01*
X0024918Y0036922D01*
X0024965Y0036909D01*
X0025012Y0036892D01*
X0025057Y0036872D01*
X0025100Y0036849D01*
X0025142Y0036822D01*
X0025181Y0036792D01*
X0025218Y0036759D01*
X0025252Y0036723D01*
X0025283Y0036685D01*
X0025312Y0036645D01*
X0025337Y0036603D01*
X0025359Y0036558D01*
X0025377Y0036513D01*
X0025392Y0036466D01*
X0025403Y0036418D01*
X0025411Y0036369D01*
X0025415Y0036320D01*
X0025415Y0036270D01*
X0025411Y0036221D01*
X0025403Y0036172D01*
X0025392Y0036124D01*
X0025377Y0036077D01*
X0025359Y0036032D01*
X0025337Y0035987D01*
X0025312Y0035945D01*
X0025283Y0035905D01*
X0025252Y0035867D01*
X0025218Y0035831D01*
X0025181Y0035798D01*
X0025142Y0035768D01*
X0025100Y0035741D01*
X0025057Y0035718D01*
X0025012Y0035698D01*
X0024965Y0035681D01*
X0024918Y0035668D01*
X0024869Y0035659D01*
X0024820Y0035653D01*
X0024771Y0035651D01*
X0023966Y0035651D01*
X0024771Y0035651D02*
X0024826Y0035649D01*
X0024881Y0035643D01*
X0024935Y0035634D01*
X0024988Y0035621D01*
X0025041Y0035604D01*
X0025092Y0035584D01*
X0025142Y0035561D01*
X0025190Y0035534D01*
X0025236Y0035503D01*
X0025280Y0035470D01*
X0025321Y0035434D01*
X0025360Y0035395D01*
X0025396Y0035354D01*
X0025429Y0035310D01*
X0025460Y0035264D01*
X0025487Y0035216D01*
X0025510Y0035166D01*
X0025530Y0035115D01*
X0025547Y0035062D01*
X0025560Y0035009D01*
X0025569Y0034955D01*
X0025575Y0034900D01*
X0025577Y0034845D01*
X0025575Y0034790D01*
X0025569Y0034735D01*
X0025560Y0034681D01*
X0025547Y0034628D01*
X0025530Y0034575D01*
X0025510Y0034524D01*
X0025487Y0034474D01*
X0025460Y0034426D01*
X0025429Y0034380D01*
X0025396Y0034336D01*
X0025360Y0034295D01*
X0025321Y0034256D01*
X0025280Y0034220D01*
X0025236Y0034187D01*
X0025190Y0034156D01*
X0025142Y0034129D01*
X0025092Y0034106D01*
X0025041Y0034086D01*
X0024988Y0034069D01*
X0024935Y0034056D01*
X0024881Y0034047D01*
X0024826Y0034041D01*
X0024771Y0034039D01*
X0027610Y0039040D02*
X0028254Y0039040D01*
X0027610Y0039040D02*
X0027562Y0039042D01*
X0027514Y0039047D01*
X0027467Y0039056D01*
X0027420Y0039069D01*
X0027375Y0039085D01*
X0027331Y0039104D01*
X0027288Y0039126D01*
X0027247Y0039152D01*
X0027208Y0039181D01*
X0027172Y0039212D01*
X0027138Y0039246D01*
X0027107Y0039282D01*
X0027078Y0039321D01*
X0027052Y0039362D01*
X0027030Y0039405D01*
X0027011Y0039449D01*
X0026995Y0039494D01*
X0026982Y0039541D01*
X0026973Y0039588D01*
X0026968Y0039636D01*
X0026966Y0039684D01*
X0026966Y0041295D01*
X0026968Y0041346D01*
X0026974Y0041396D01*
X0026984Y0041445D01*
X0026998Y0041494D01*
X0027015Y0041541D01*
X0027036Y0041587D01*
X0027061Y0041631D01*
X0027089Y0041674D01*
X0027120Y0041713D01*
X0027155Y0041750D01*
X0027192Y0041785D01*
X0027231Y0041816D01*
X0027274Y0041844D01*
X0027318Y0041869D01*
X0027364Y0041890D01*
X0027411Y0041907D01*
X0027460Y0041921D01*
X0027509Y0041931D01*
X0027559Y0041937D01*
X0027610Y0041939D01*
X0027610Y0041940D02*
X0028254Y0041940D01*
X0029455Y0039765D02*
X0030905Y0039765D01*
X0031147Y0039040D02*
X0030180Y0041940D01*
X0029214Y0039040D01*
X0032357Y0039040D02*
X0033646Y0039040D01*
X0032357Y0039040D02*
X0032357Y0041940D01*
X0042271Y0028040D02*
X0043882Y0028040D01*
X0053705Y0059964D02*
X0055316Y0059964D01*
X0055364Y0059966D01*
X0055412Y0059971D01*
X0055459Y0059980D01*
X0055506Y0059993D01*
X0055551Y0060009D01*
X0055595Y0060028D01*
X0055638Y0060050D01*
X0055679Y0060076D01*
X0055718Y0060105D01*
X0055754Y0060136D01*
X0055788Y0060170D01*
X0055819Y0060206D01*
X0055848Y0060245D01*
X0055874Y0060286D01*
X0055896Y0060329D01*
X0055915Y0060373D01*
X0055931Y0060418D01*
X0055944Y0060465D01*
X0055953Y0060512D01*
X0055958Y0060560D01*
X0055960Y0060608D01*
X0055960Y0061253D01*
X0055960Y0062373D02*
X0055960Y0063984D01*
X0055960Y0062373D02*
X0054349Y0063742D01*
X0053061Y0063259D02*
X0053063Y0063200D01*
X0053068Y0063142D01*
X0053078Y0063084D01*
X0053090Y0063027D01*
X0053107Y0062971D01*
X0053126Y0062916D01*
X0053150Y0062862D01*
X0053176Y0062810D01*
X0053206Y0062760D01*
X0053239Y0062711D01*
X0053275Y0062665D01*
X0053314Y0062621D01*
X0053355Y0062580D01*
X0053399Y0062541D01*
X0053445Y0062505D01*
X0053494Y0062473D01*
X0053544Y0062443D01*
X0053596Y0062416D01*
X0053650Y0062393D01*
X0053705Y0062373D01*
X0054349Y0063742D02*
X0054312Y0063779D01*
X0054272Y0063813D01*
X0054230Y0063845D01*
X0054185Y0063873D01*
X0054139Y0063899D01*
X0054092Y0063921D01*
X0054043Y0063940D01*
X0053993Y0063956D01*
X0053942Y0063968D01*
X0053890Y0063977D01*
X0053838Y0063982D01*
X0053785Y0063984D01*
X0053733Y0063982D01*
X0053682Y0063977D01*
X0053631Y0063967D01*
X0053581Y0063955D01*
X0053532Y0063938D01*
X0053484Y0063918D01*
X0053438Y0063895D01*
X0053393Y0063869D01*
X0053351Y0063839D01*
X0053310Y0063807D01*
X0053272Y0063772D01*
X0053237Y0063734D01*
X0053205Y0063693D01*
X0053175Y0063651D01*
X0053149Y0063606D01*
X0053126Y0063560D01*
X0053106Y0063512D01*
X0053089Y0063463D01*
X0053077Y0063413D01*
X0053067Y0063362D01*
X0053062Y0063311D01*
X0053060Y0063259D01*
X0053060Y0061253D02*
X0053060Y0060608D01*
X0053061Y0060608D02*
X0053063Y0060557D01*
X0053069Y0060507D01*
X0053079Y0060458D01*
X0053093Y0060409D01*
X0053110Y0060362D01*
X0053131Y0060316D01*
X0053156Y0060271D01*
X0053184Y0060229D01*
X0053215Y0060190D01*
X0053250Y0060153D01*
X0053287Y0060118D01*
X0053326Y0060087D01*
X0053369Y0060059D01*
X0053413Y0060034D01*
X0053459Y0060013D01*
X0053506Y0059996D01*
X0053555Y0059982D01*
X0053604Y0059972D01*
X0053654Y0059966D01*
X0053705Y0059964D01*
X0047901Y0061959D02*
X0047901Y0062603D01*
X0047901Y0061959D02*
X0047899Y0061911D01*
X0047894Y0061863D01*
X0047885Y0061816D01*
X0047872Y0061769D01*
X0047856Y0061724D01*
X0047837Y0061680D01*
X0047815Y0061637D01*
X0047789Y0061596D01*
X0047760Y0061557D01*
X0047729Y0061521D01*
X0047695Y0061487D01*
X0047659Y0061456D01*
X0047620Y0061427D01*
X0047579Y0061401D01*
X0047536Y0061379D01*
X0047492Y0061360D01*
X0047447Y0061344D01*
X0047400Y0061331D01*
X0047353Y0061322D01*
X0047305Y0061317D01*
X0047257Y0061315D01*
X0047257Y0061314D02*
X0045645Y0061314D01*
X0045645Y0061315D02*
X0045594Y0061317D01*
X0045544Y0061323D01*
X0045495Y0061333D01*
X0045446Y0061347D01*
X0045399Y0061364D01*
X0045353Y0061385D01*
X0045309Y0061410D01*
X0045266Y0061438D01*
X0045227Y0061469D01*
X0045190Y0061504D01*
X0045155Y0061541D01*
X0045124Y0061580D01*
X0045096Y0061622D01*
X0045071Y0061667D01*
X0045050Y0061713D01*
X0045033Y0061760D01*
X0045019Y0061809D01*
X0045009Y0061858D01*
X0045003Y0061908D01*
X0045001Y0061959D01*
X0045001Y0062603D01*
X0046290Y0063723D02*
X0046290Y0064690D01*
X0046290Y0063723D02*
X0046220Y0063725D01*
X0046151Y0063731D01*
X0046081Y0063740D01*
X0046013Y0063753D01*
X0045945Y0063770D01*
X0045878Y0063790D01*
X0045813Y0063815D01*
X0045749Y0063842D01*
X0045686Y0063873D01*
X0045625Y0063908D01*
X0045567Y0063945D01*
X0045510Y0063986D01*
X0045456Y0064030D01*
X0045404Y0064076D01*
X0045354Y0064126D01*
X0045308Y0064178D01*
X0045264Y0064232D01*
X0045223Y0064289D01*
X0045186Y0064347D01*
X0045151Y0064408D01*
X0045120Y0064471D01*
X0045093Y0064535D01*
X0045068Y0064600D01*
X0045048Y0064667D01*
X0045031Y0064735D01*
X0045018Y0064803D01*
X0045009Y0064873D01*
X0045003Y0064942D01*
X0045001Y0065012D01*
X0046290Y0063723D02*
X0047095Y0063723D01*
X0047150Y0063725D01*
X0047205Y0063731D01*
X0047259Y0063740D01*
X0047312Y0063753D01*
X0047365Y0063770D01*
X0047416Y0063790D01*
X0047466Y0063813D01*
X0047514Y0063840D01*
X0047560Y0063871D01*
X0047604Y0063904D01*
X0047645Y0063940D01*
X0047684Y0063979D01*
X0047720Y0064020D01*
X0047753Y0064064D01*
X0047784Y0064110D01*
X0047811Y0064158D01*
X0047834Y0064208D01*
X0047854Y0064259D01*
X0047871Y0064312D01*
X0047884Y0064365D01*
X0047893Y0064419D01*
X0047899Y0064474D01*
X0047901Y0064529D01*
X0047899Y0064584D01*
X0047893Y0064639D01*
X0047884Y0064693D01*
X0047871Y0064746D01*
X0047854Y0064799D01*
X0047834Y0064850D01*
X0047811Y0064900D01*
X0047784Y0064948D01*
X0047753Y0064994D01*
X0047720Y0065038D01*
X0047684Y0065079D01*
X0047645Y0065118D01*
X0047604Y0065154D01*
X0047560Y0065187D01*
X0047514Y0065218D01*
X0047466Y0065245D01*
X0047416Y0065268D01*
X0047365Y0065288D01*
X0047312Y0065305D01*
X0047259Y0065318D01*
X0047205Y0065327D01*
X0047150Y0065333D01*
X0047095Y0065335D01*
X0047095Y0065334D02*
X0046934Y0065334D01*
X0046886Y0065332D01*
X0046838Y0065327D01*
X0046791Y0065318D01*
X0046744Y0065305D01*
X0046699Y0065289D01*
X0046655Y0065270D01*
X0046612Y0065248D01*
X0046571Y0065222D01*
X0046532Y0065194D01*
X0046496Y0065162D01*
X0046462Y0065128D01*
X0046431Y0065092D01*
X0046402Y0065053D01*
X0046376Y0065012D01*
X0046354Y0064969D01*
X0046335Y0064925D01*
X0046319Y0064880D01*
X0046306Y0064833D01*
X0046297Y0064786D01*
X0046292Y0064738D01*
X0046290Y0064690D01*
X0045841Y0081434D02*
X0045197Y0082723D01*
X0045036Y0082723D02*
X0044230Y0082723D01*
X0044230Y0081434D02*
X0044230Y0084334D01*
X0045036Y0084334D01*
X0045036Y0084335D02*
X0045091Y0084333D01*
X0045146Y0084327D01*
X0045200Y0084318D01*
X0045253Y0084305D01*
X0045306Y0084288D01*
X0045357Y0084268D01*
X0045407Y0084245D01*
X0045455Y0084218D01*
X0045501Y0084187D01*
X0045545Y0084154D01*
X0045586Y0084118D01*
X0045625Y0084079D01*
X0045661Y0084038D01*
X0045694Y0083994D01*
X0045725Y0083948D01*
X0045752Y0083900D01*
X0045775Y0083850D01*
X0045795Y0083799D01*
X0045812Y0083746D01*
X0045825Y0083693D01*
X0045834Y0083639D01*
X0045840Y0083584D01*
X0045842Y0083529D01*
X0045840Y0083474D01*
X0045834Y0083419D01*
X0045825Y0083365D01*
X0045812Y0083312D01*
X0045795Y0083259D01*
X0045775Y0083208D01*
X0045752Y0083158D01*
X0045725Y0083110D01*
X0045694Y0083064D01*
X0045661Y0083020D01*
X0045625Y0082979D01*
X0045586Y0082940D01*
X0045545Y0082904D01*
X0045501Y0082871D01*
X0045455Y0082840D01*
X0045407Y0082813D01*
X0045357Y0082790D01*
X0045306Y0082770D01*
X0045253Y0082753D01*
X0045200Y0082740D01*
X0045146Y0082731D01*
X0045091Y0082725D01*
X0045036Y0082723D01*
X0047090Y0083690D02*
X0047895Y0084334D01*
X0047895Y0081434D01*
X0047090Y0081434D02*
X0048701Y0081434D01*
X0062001Y0080466D02*
X0064901Y0080466D01*
X0064901Y0081271D02*
X0064901Y0079660D01*
X0064095Y0078295D02*
X0062807Y0078295D01*
X0062807Y0078296D02*
X0062752Y0078294D01*
X0062697Y0078288D01*
X0062643Y0078279D01*
X0062590Y0078266D01*
X0062537Y0078249D01*
X0062486Y0078229D01*
X0062436Y0078206D01*
X0062388Y0078179D01*
X0062342Y0078148D01*
X0062298Y0078115D01*
X0062257Y0078079D01*
X0062218Y0078040D01*
X0062182Y0077999D01*
X0062149Y0077955D01*
X0062118Y0077909D01*
X0062091Y0077861D01*
X0062068Y0077811D01*
X0062048Y0077760D01*
X0062031Y0077707D01*
X0062018Y0077654D01*
X0062009Y0077600D01*
X0062003Y0077545D01*
X0062001Y0077490D01*
X0062001Y0076684D01*
X0064901Y0076684D01*
X0064901Y0077490D01*
X0064899Y0077545D01*
X0064893Y0077600D01*
X0064884Y0077654D01*
X0064871Y0077707D01*
X0064854Y0077760D01*
X0064834Y0077811D01*
X0064811Y0077861D01*
X0064784Y0077909D01*
X0064753Y0077955D01*
X0064720Y0077999D01*
X0064684Y0078040D01*
X0064645Y0078079D01*
X0064604Y0078115D01*
X0064560Y0078148D01*
X0064514Y0078179D01*
X0064466Y0078206D01*
X0064416Y0078229D01*
X0064365Y0078249D01*
X0064312Y0078266D01*
X0064259Y0078279D01*
X0064205Y0078288D01*
X0064150Y0078294D01*
X0064095Y0078296D01*
X0062645Y0079660D02*
X0062001Y0080466D01*
X0062001Y0075483D02*
X0062001Y0074194D01*
X0064901Y0074194D01*
X0064901Y0075483D01*
X0063290Y0075161D02*
X0063290Y0074194D01*
X0064901Y0072987D02*
X0064901Y0071698D01*
X0062001Y0071698D01*
X0017721Y0035034D02*
X0017721Y0032134D01*
X0016755Y0033423D02*
X0017721Y0035034D01*
X0016755Y0033423D02*
X0015788Y0035034D01*
X0015788Y0032134D01*
X0014485Y0032134D02*
X0013840Y0032134D01*
X0014163Y0032134D02*
X0014163Y0035034D01*
X0014485Y0035034D02*
X0013840Y0035034D01*
X0012763Y0035034D02*
X0012119Y0032134D01*
X0011475Y0034068D01*
X0010830Y0032134D01*
X0010186Y0035034D01*
X0008790Y0033343D02*
X0007904Y0033826D01*
X0008226Y0035034D02*
X0008291Y0035032D01*
X0008355Y0035027D01*
X0008420Y0035018D01*
X0008483Y0035006D01*
X0008546Y0034991D01*
X0008608Y0034972D01*
X0008669Y0034950D01*
X0008728Y0034925D01*
X0008787Y0034896D01*
X0008843Y0034864D01*
X0008898Y0034830D01*
X0008951Y0034792D01*
X0007903Y0033826D02*
X0007863Y0033852D01*
X0007824Y0033881D01*
X0007787Y0033913D01*
X0007753Y0033948D01*
X0007722Y0033985D01*
X0007693Y0034024D01*
X0007667Y0034065D01*
X0007645Y0034108D01*
X0007626Y0034153D01*
X0007610Y0034199D01*
X0007597Y0034245D01*
X0007588Y0034293D01*
X0007583Y0034341D01*
X0007581Y0034390D01*
X0007582Y0034390D02*
X0007584Y0034438D01*
X0007589Y0034486D01*
X0007598Y0034533D01*
X0007611Y0034580D01*
X0007627Y0034625D01*
X0007646Y0034669D01*
X0007668Y0034712D01*
X0007694Y0034753D01*
X0007723Y0034792D01*
X0007754Y0034828D01*
X0007788Y0034862D01*
X0007824Y0034894D01*
X0007863Y0034922D01*
X0007904Y0034948D01*
X0007947Y0034970D01*
X0007991Y0034989D01*
X0008036Y0035005D01*
X0008083Y0035018D01*
X0008130Y0035027D01*
X0008178Y0035032D01*
X0008226Y0035034D01*
X0007502Y0032538D02*
X0007553Y0032488D01*
X0007608Y0032441D01*
X0007664Y0032398D01*
X0007723Y0032357D01*
X0007784Y0032319D01*
X0007847Y0032285D01*
X0007912Y0032254D01*
X0007978Y0032226D01*
X0008045Y0032202D01*
X0008114Y0032182D01*
X0008184Y0032165D01*
X0008254Y0032152D01*
X0008325Y0032143D01*
X0008396Y0032137D01*
X0008468Y0032135D01*
X0008516Y0032137D01*
X0008564Y0032142D01*
X0008611Y0032151D01*
X0008658Y0032164D01*
X0008703Y0032180D01*
X0008747Y0032199D01*
X0008790Y0032221D01*
X0008831Y0032247D01*
X0008870Y0032276D01*
X0008906Y0032307D01*
X0008940Y0032341D01*
X0008971Y0032377D01*
X0009000Y0032416D01*
X0009026Y0032457D01*
X0009048Y0032500D01*
X0009067Y0032544D01*
X0009083Y0032589D01*
X0009096Y0032636D01*
X0009105Y0032683D01*
X0009110Y0032731D01*
X0009112Y0032779D01*
X0009113Y0032779D02*
X0009111Y0032828D01*
X0009106Y0032876D01*
X0009097Y0032924D01*
X0009084Y0032970D01*
X0009068Y0033016D01*
X0009049Y0033061D01*
X0009027Y0033104D01*
X0009001Y0033145D01*
X0008972Y0033184D01*
X0008941Y0033221D01*
X0008907Y0033256D01*
X0008870Y0033288D01*
X0008831Y0033317D01*
X0008791Y0033343D01*
D12*
X0012364Y0043525D02*
X0030338Y0043525D01*
X0030338Y0068443D01*
X0012364Y0068443D01*
X0012364Y0043525D01*
X0024351Y0047025D02*
X0024353Y0047109D01*
X0024359Y0047194D01*
X0024369Y0047277D01*
X0024383Y0047361D01*
X0024400Y0047443D01*
X0024422Y0047525D01*
X0024447Y0047605D01*
X0024476Y0047684D01*
X0024509Y0047762D01*
X0024545Y0047838D01*
X0024585Y0047913D01*
X0024629Y0047985D01*
X0024675Y0048056D01*
X0024725Y0048124D01*
X0024778Y0048189D01*
X0024834Y0048252D01*
X0024893Y0048313D01*
X0024955Y0048370D01*
X0025019Y0048425D01*
X0025086Y0048476D01*
X0025155Y0048525D01*
X0025227Y0048570D01*
X0025300Y0048611D01*
X0025375Y0048649D01*
X0025452Y0048684D01*
X0025531Y0048715D01*
X0025611Y0048742D01*
X0025692Y0048765D01*
X0025774Y0048785D01*
X0025857Y0048801D01*
X0025940Y0048813D01*
X0026025Y0048821D01*
X0026109Y0048825D01*
X0026193Y0048825D01*
X0026277Y0048821D01*
X0026362Y0048813D01*
X0026445Y0048801D01*
X0026528Y0048785D01*
X0026610Y0048765D01*
X0026691Y0048742D01*
X0026771Y0048715D01*
X0026850Y0048684D01*
X0026927Y0048649D01*
X0027002Y0048611D01*
X0027075Y0048570D01*
X0027147Y0048525D01*
X0027216Y0048476D01*
X0027283Y0048425D01*
X0027347Y0048370D01*
X0027409Y0048313D01*
X0027468Y0048252D01*
X0027524Y0048189D01*
X0027577Y0048124D01*
X0027627Y0048056D01*
X0027673Y0047985D01*
X0027717Y0047913D01*
X0027757Y0047838D01*
X0027793Y0047762D01*
X0027826Y0047684D01*
X0027855Y0047605D01*
X0027880Y0047525D01*
X0027902Y0047443D01*
X0027919Y0047361D01*
X0027933Y0047277D01*
X0027943Y0047194D01*
X0027949Y0047109D01*
X0027951Y0047025D01*
X0027949Y0046941D01*
X0027943Y0046856D01*
X0027933Y0046773D01*
X0027919Y0046689D01*
X0027902Y0046607D01*
X0027880Y0046525D01*
X0027855Y0046445D01*
X0027826Y0046366D01*
X0027793Y0046288D01*
X0027757Y0046212D01*
X0027717Y0046137D01*
X0027673Y0046065D01*
X0027627Y0045994D01*
X0027577Y0045926D01*
X0027524Y0045861D01*
X0027468Y0045798D01*
X0027409Y0045737D01*
X0027347Y0045680D01*
X0027283Y0045625D01*
X0027216Y0045574D01*
X0027147Y0045525D01*
X0027075Y0045480D01*
X0027002Y0045439D01*
X0026927Y0045401D01*
X0026850Y0045366D01*
X0026771Y0045335D01*
X0026691Y0045308D01*
X0026610Y0045285D01*
X0026528Y0045265D01*
X0026445Y0045249D01*
X0026362Y0045237D01*
X0026277Y0045229D01*
X0026193Y0045225D01*
X0026109Y0045225D01*
X0026025Y0045229D01*
X0025940Y0045237D01*
X0025857Y0045249D01*
X0025774Y0045265D01*
X0025692Y0045285D01*
X0025611Y0045308D01*
X0025531Y0045335D01*
X0025452Y0045366D01*
X0025375Y0045401D01*
X0025300Y0045439D01*
X0025227Y0045480D01*
X0025155Y0045525D01*
X0025086Y0045574D01*
X0025019Y0045625D01*
X0024955Y0045680D01*
X0024893Y0045737D01*
X0024834Y0045798D01*
X0024778Y0045861D01*
X0024725Y0045926D01*
X0024675Y0045994D01*
X0024629Y0046065D01*
X0024585Y0046137D01*
X0024545Y0046212D01*
X0024509Y0046288D01*
X0024476Y0046366D01*
X0024447Y0046445D01*
X0024422Y0046525D01*
X0024400Y0046607D01*
X0024383Y0046689D01*
X0024369Y0046773D01*
X0024359Y0046856D01*
X0024353Y0046941D01*
X0024351Y0047025D01*
X0036351Y0039984D02*
X0036351Y0033984D01*
X0036351Y0039984D02*
X0038351Y0041984D01*
X0043351Y0041984D01*
X0043438Y0041986D01*
X0043525Y0041992D01*
X0043612Y0042001D01*
X0043698Y0042014D01*
X0043784Y0042031D01*
X0043869Y0042052D01*
X0043952Y0042077D01*
X0044035Y0042105D01*
X0044116Y0042136D01*
X0044196Y0042171D01*
X0044274Y0042210D01*
X0044351Y0042252D01*
X0044426Y0042297D01*
X0044498Y0042346D01*
X0044569Y0042397D01*
X0044637Y0042452D01*
X0044702Y0042509D01*
X0044765Y0042570D01*
X0044826Y0042633D01*
X0044883Y0042698D01*
X0044938Y0042766D01*
X0044989Y0042837D01*
X0045038Y0042909D01*
X0045083Y0042984D01*
X0045125Y0043061D01*
X0045164Y0043139D01*
X0045199Y0043219D01*
X0045230Y0043300D01*
X0045258Y0043383D01*
X0045283Y0043466D01*
X0045304Y0043551D01*
X0045321Y0043637D01*
X0045334Y0043723D01*
X0045343Y0043810D01*
X0045349Y0043897D01*
X0045351Y0043984D01*
X0045351Y0048984D01*
X0045351Y0047484D02*
X0045351Y0052484D01*
X0047851Y0054984D01*
X0062851Y0054984D01*
X0065351Y0052484D01*
X0065351Y0047484D01*
X0062851Y0044984D01*
X0047851Y0044984D01*
X0045351Y0047484D01*
X0047851Y0044984D02*
X0045351Y0042484D01*
X0045351Y0037484D01*
X0047851Y0034984D01*
X0062851Y0034984D01*
X0065351Y0037484D01*
X0065351Y0042484D01*
X0062851Y0044984D01*
X0062851Y0034984D02*
X0065351Y0032484D01*
X0065351Y0027484D01*
X0062851Y0024984D01*
X0047851Y0024984D01*
X0045351Y0027484D01*
X0045351Y0032484D01*
X0047851Y0034984D01*
X0047851Y0024984D02*
X0045351Y0022484D01*
X0045351Y0017484D01*
X0047851Y0014984D01*
X0062851Y0014984D01*
X0065351Y0017484D01*
X0065351Y0022484D01*
X0062851Y0024984D01*
X0062851Y0014984D02*
X0065351Y0012484D01*
X0065351Y0007484D01*
X0062851Y0004984D01*
X0047851Y0004984D01*
X0045351Y0007484D01*
X0045351Y0012484D01*
X0047851Y0014984D01*
X0029251Y0069125D02*
X0027807Y0069125D01*
X0029034Y0070570D01*
X0028601Y0071725D02*
X0028546Y0071723D01*
X0028491Y0071718D01*
X0028436Y0071709D01*
X0028383Y0071696D01*
X0028330Y0071680D01*
X0028278Y0071660D01*
X0028228Y0071637D01*
X0028179Y0071611D01*
X0028132Y0071581D01*
X0028088Y0071549D01*
X0028045Y0071513D01*
X0028005Y0071475D01*
X0027968Y0071434D01*
X0027933Y0071391D01*
X0027902Y0071346D01*
X0027873Y0071299D01*
X0027848Y0071250D01*
X0027825Y0071199D01*
X0027807Y0071147D01*
X0029034Y0070570D02*
X0029070Y0070606D01*
X0029103Y0070646D01*
X0029133Y0070687D01*
X0029160Y0070731D01*
X0029184Y0070777D01*
X0029204Y0070824D01*
X0029221Y0070872D01*
X0029234Y0070922D01*
X0029243Y0070973D01*
X0029249Y0071024D01*
X0029251Y0071075D01*
X0029249Y0071124D01*
X0029244Y0071172D01*
X0029235Y0071220D01*
X0029222Y0071267D01*
X0029206Y0071312D01*
X0029187Y0071357D01*
X0029164Y0071400D01*
X0029138Y0071441D01*
X0029109Y0071480D01*
X0029077Y0071517D01*
X0029043Y0071551D01*
X0029006Y0071583D01*
X0028967Y0071612D01*
X0028926Y0071638D01*
X0028883Y0071661D01*
X0028838Y0071680D01*
X0028793Y0071696D01*
X0028746Y0071709D01*
X0028698Y0071718D01*
X0028650Y0071723D01*
X0028601Y0071725D01*
X0026548Y0071725D02*
X0025970Y0071725D01*
X0025922Y0071723D01*
X0025875Y0071717D01*
X0025828Y0071707D01*
X0025782Y0071694D01*
X0025738Y0071676D01*
X0025695Y0071655D01*
X0025654Y0071631D01*
X0025615Y0071603D01*
X0025579Y0071572D01*
X0025545Y0071538D01*
X0025514Y0071502D01*
X0025486Y0071463D01*
X0025462Y0071422D01*
X0025441Y0071379D01*
X0025423Y0071335D01*
X0025410Y0071289D01*
X0025400Y0071242D01*
X0025394Y0071195D01*
X0025392Y0071147D01*
X0025393Y0071147D02*
X0025393Y0069703D01*
X0025392Y0069703D02*
X0025394Y0069658D01*
X0025399Y0069613D01*
X0025408Y0069568D01*
X0025420Y0069524D01*
X0025436Y0069482D01*
X0025455Y0069441D01*
X0025477Y0069401D01*
X0025502Y0069363D01*
X0025530Y0069328D01*
X0025561Y0069294D01*
X0025595Y0069263D01*
X0025630Y0069235D01*
X0025668Y0069210D01*
X0025708Y0069188D01*
X0025749Y0069169D01*
X0025791Y0069153D01*
X0025835Y0069141D01*
X0025880Y0069132D01*
X0025925Y0069127D01*
X0025970Y0069125D01*
X0026548Y0069125D01*
X0024114Y0069125D02*
X0023536Y0069125D01*
X0023825Y0069125D02*
X0023825Y0071725D01*
X0023536Y0071725D02*
X0024114Y0071725D01*
D13*
X0029438Y0067543D02*
X0013264Y0067543D01*
X0013264Y0044425D01*
X0029438Y0044425D01*
X0029438Y0067543D01*
D14*
X0025851Y0030484D02*
X0022851Y0030484D01*
X0021851Y0029484D01*
X0020851Y0030484D01*
X0017851Y0030484D01*
X0016851Y0029484D01*
X0015851Y0030484D01*
X0012851Y0030484D01*
X0011851Y0029484D01*
X0010851Y0030484D01*
X0007851Y0030484D01*
X0005851Y0028484D01*
X0005851Y0025484D01*
X0007851Y0023484D01*
X0010851Y0023484D01*
X0011851Y0024484D01*
X0012851Y0023484D01*
X0015851Y0023484D01*
X0016851Y0024484D01*
X0017851Y0023484D01*
X0020851Y0023484D01*
X0021851Y0024484D01*
X0022851Y0023484D01*
X0025851Y0023484D01*
X0027851Y0025484D01*
X0027851Y0028484D01*
X0025851Y0030484D01*
D15*
X0057875Y0074394D03*
X0060827Y0074394D03*
D16*
X0059351Y0074394D03*
M02*
