G75*
%MOIN*%
%OFA0B0*%
%FSLAX25Y25*%
%IPPOS*%
%LPD*%
%AMOC8*
5,1,8,0,0,1.08239X$1,22.5*
%
%ADD10R,0.04300X0.01600*%
%ADD11R,0.04337X0.04731*%
%ADD12C,0.04400*%
%ADD13R,0.03550X0.03550*%
%ADD14OC8,0.06400*%
%ADD15R,0.04652X0.04534*%
%ADD16OC8,0.05600*%
D10*
X0009864Y0044469D03*
X0009864Y0047028D03*
X0009864Y0049587D03*
X0009864Y0052146D03*
X0009864Y0054705D03*
X0009864Y0057264D03*
X0009864Y0059823D03*
X0009864Y0062382D03*
X0009864Y0064941D03*
X0009864Y0067500D03*
X0032838Y0067500D03*
X0032838Y0064941D03*
X0032838Y0062382D03*
X0032838Y0059823D03*
X0032838Y0057264D03*
X0032838Y0054705D03*
X0032838Y0052146D03*
X0032838Y0049587D03*
X0032838Y0047028D03*
X0032838Y0044469D03*
D11*
X0042351Y0059638D03*
X0042351Y0066331D03*
X0043005Y0076984D03*
X0049697Y0076984D03*
D12*
X0024351Y0026984D03*
X0019351Y0026984D03*
X0014351Y0026984D03*
X0009351Y0026984D03*
D13*
X0059351Y0072031D03*
X0059351Y0077937D03*
D14*
X0060351Y0049984D03*
X0060351Y0039984D03*
X0060351Y0029984D03*
X0060351Y0019984D03*
X0060351Y0009984D03*
X0050351Y0009984D03*
X0050351Y0019984D03*
X0050351Y0029984D03*
X0050351Y0039984D03*
X0050351Y0049984D03*
D15*
X0050351Y0059539D03*
X0050351Y0066429D03*
D16*
X0009351Y0017984D03*
X0039351Y0037984D03*
X0009351Y0077984D03*
X0009351Y0087984D03*
X0039351Y0087984D03*
M02*
