G75*
%MOIN*%
%OFA0B0*%
%FSLAX25Y25*%
%IPPOS*%
%LPD*%
%AMOC8*
5,1,8,0,0,1.08239X$1,22.5*
%
%ADD10C,0.00000*%
%ADD11R,0.03900X0.01200*%
%ADD12R,0.03937X0.04331*%
%ADD13C,0.04000*%
%ADD14R,0.03150X0.03150*%
%ADD15OC8,0.06000*%
%ADD16R,0.04252X0.04134*%
%ADD17OC8,0.05200*%
%ADD18C,0.01000*%
%ADD19OC8,0.04134*%
%ADD20C,0.01969*%
D10*
X0002320Y0001984D02*
X0002320Y0092535D01*
X0067280Y0092535D01*
X0067280Y0001984D01*
X0002320Y0001984D01*
D11*
X0009864Y0044469D03*
X0009864Y0047028D03*
X0009864Y0049587D03*
X0009864Y0052146D03*
X0009864Y0054705D03*
X0009864Y0057264D03*
X0009864Y0059823D03*
X0009864Y0062382D03*
X0009864Y0064941D03*
X0009864Y0067500D03*
X0032838Y0067500D03*
X0032838Y0064941D03*
X0032838Y0062382D03*
X0032838Y0059823D03*
X0032838Y0057264D03*
X0032838Y0054705D03*
X0032838Y0052146D03*
X0032838Y0049587D03*
X0032838Y0047028D03*
X0032838Y0044469D03*
D12*
X0042351Y0059638D03*
X0042351Y0066331D03*
X0043005Y0076984D03*
X0049697Y0076984D03*
D13*
X0024351Y0026984D03*
X0019351Y0026984D03*
X0014351Y0026984D03*
X0009351Y0026984D03*
D14*
X0059351Y0072031D03*
X0059351Y0077937D03*
D15*
X0060351Y0049984D03*
X0060351Y0039984D03*
X0060351Y0029984D03*
X0060351Y0019984D03*
X0060351Y0009984D03*
X0050351Y0009984D03*
X0050351Y0019984D03*
X0050351Y0029984D03*
X0050351Y0039984D03*
X0050351Y0049984D03*
D16*
X0050351Y0059539D03*
X0050351Y0066429D03*
D17*
X0039351Y0087984D03*
X0009351Y0087984D03*
X0009351Y0077984D03*
X0039351Y0037984D03*
X0009351Y0017984D03*
D18*
X0016351Y0017984D01*
X0019351Y0020984D01*
X0019351Y0026984D01*
X0014351Y0026984D02*
X0014351Y0032984D01*
X0014351Y0048984D01*
X0013749Y0049587D01*
X0009864Y0049587D01*
X0009864Y0052146D02*
X0016190Y0052146D01*
X0018351Y0049984D01*
X0018351Y0039368D01*
X0047735Y0009984D01*
X0050351Y0009984D01*
X0050351Y0019984D02*
X0042351Y0019984D01*
X0020351Y0041984D01*
X0020351Y0050984D01*
X0016631Y0054705D01*
X0009864Y0054705D01*
X0009864Y0057264D02*
X0017072Y0057264D01*
X0022351Y0051984D01*
X0022351Y0043984D01*
X0036351Y0029984D01*
X0050351Y0029984D01*
X0039351Y0037984D02*
X0035351Y0037984D01*
X0032838Y0040497D01*
X0032838Y0044469D01*
X0032838Y0052146D02*
X0039190Y0052146D01*
X0042351Y0048984D01*
X0045631Y0054705D02*
X0032838Y0054705D01*
X0032838Y0059823D02*
X0025190Y0059823D01*
X0022351Y0056984D01*
X0016631Y0054705D02*
X0016631Y0054705D01*
X0014190Y0059823D02*
X0009864Y0059823D01*
X0009864Y0062382D02*
X0013864Y0062382D01*
X0015409Y0063927D01*
X0015409Y0069927D01*
X0014568Y0070767D01*
X0011612Y0070767D01*
X0005851Y0075484D02*
X0008351Y0077984D01*
X0009351Y0077984D01*
X0005851Y0075484D02*
X0005851Y0045484D01*
X0006867Y0044469D01*
X0009864Y0044469D01*
X0014190Y0059823D02*
X0019851Y0065484D01*
X0019851Y0077484D01*
X0009351Y0087984D01*
X0018351Y0084984D02*
X0019351Y0083984D01*
X0046351Y0083984D01*
X0050650Y0077937D02*
X0049697Y0076984D01*
X0050650Y0077937D02*
X0059351Y0077937D01*
X0059351Y0072031D02*
X0059351Y0060244D01*
X0060351Y0059244D01*
X0060351Y0049984D01*
X0059351Y0060244D02*
X0051056Y0060244D01*
X0050351Y0059539D01*
X0050068Y0059823D01*
X0042166Y0059823D01*
X0042351Y0059638D01*
X0042166Y0059823D02*
X0032838Y0059823D01*
X0032838Y0062382D02*
X0035749Y0062382D01*
X0039697Y0066331D01*
X0042351Y0066331D01*
X0038351Y0070984D02*
X0049351Y0070984D01*
X0050351Y0069984D01*
X0050351Y0066429D01*
X0056056Y0066429D01*
X0045631Y0054705D02*
X0050351Y0049984D01*
X0035308Y0064941D02*
X0037351Y0066984D01*
X0037351Y0069984D01*
X0038351Y0070984D01*
X0032838Y0071472D02*
X0038351Y0076984D01*
X0043005Y0076984D01*
X0035308Y0064941D02*
X0032838Y0064941D01*
X0032838Y0067500D02*
X0032838Y0071472D01*
D19*
X0022351Y0056984D03*
X0011612Y0070767D03*
X0018351Y0084984D03*
X0042351Y0048984D03*
X0056056Y0066429D03*
X0046351Y0083984D03*
D20*
X0045629Y0080734D02*
X0040380Y0080734D01*
X0039452Y0079806D01*
X0039452Y0079068D01*
X0037488Y0079068D01*
X0031975Y0073556D01*
X0030754Y0072335D01*
X0030754Y0069684D01*
X0030232Y0069684D01*
X0029304Y0068756D01*
X0029304Y0066244D01*
X0029327Y0066220D01*
X0029304Y0066197D01*
X0029304Y0063685D01*
X0029327Y0063661D01*
X0029304Y0063638D01*
X0029304Y0061645D01*
X0029301Y0061641D01*
X0029039Y0061189D01*
X0028904Y0060684D01*
X0028904Y0059823D01*
X0032838Y0059823D01*
X0032838Y0059823D01*
X0028904Y0059823D01*
X0028904Y0058962D01*
X0029039Y0058457D01*
X0029301Y0058004D01*
X0029304Y0058001D01*
X0029304Y0056008D01*
X0029327Y0055984D01*
X0029304Y0055961D01*
X0029304Y0053448D01*
X0029327Y0053425D01*
X0029304Y0053402D01*
X0029304Y0050889D01*
X0029327Y0050866D01*
X0029304Y0050843D01*
X0029304Y0048330D01*
X0029327Y0048307D01*
X0029304Y0048284D01*
X0029304Y0045771D01*
X0029327Y0045748D01*
X0029304Y0045725D01*
X0029304Y0043212D01*
X0030232Y0042284D01*
X0030754Y0042284D01*
X0030754Y0039634D01*
X0031975Y0038413D01*
X0034488Y0035900D01*
X0035518Y0035900D01*
X0037618Y0033800D01*
X0041084Y0033800D01*
X0043535Y0036251D01*
X0043535Y0039717D01*
X0041084Y0042168D01*
X0037618Y0042168D01*
X0035866Y0040417D01*
X0034923Y0041360D01*
X0034923Y0042284D01*
X0035445Y0042284D01*
X0036373Y0043212D01*
X0036373Y0045725D01*
X0036349Y0045748D01*
X0036373Y0045771D01*
X0036373Y0048284D01*
X0036349Y0048307D01*
X0036373Y0048330D01*
X0036373Y0050061D01*
X0038326Y0050061D01*
X0038700Y0049688D01*
X0038700Y0047472D01*
X0040839Y0045333D01*
X0043863Y0045333D01*
X0046002Y0047472D01*
X0046002Y0047850D01*
X0048452Y0045400D01*
X0052250Y0045400D01*
X0054935Y0048085D01*
X0054935Y0051883D01*
X0052250Y0054568D01*
X0048714Y0054568D01*
X0047733Y0055550D01*
X0047964Y0055488D01*
X0050302Y0055488D01*
X0050302Y0059490D01*
X0050400Y0059490D01*
X0050400Y0055488D01*
X0052738Y0055488D01*
X0053243Y0055623D01*
X0053695Y0055885D01*
X0054065Y0056254D01*
X0054326Y0056707D01*
X0054461Y0057211D01*
X0054461Y0059490D01*
X0050400Y0059490D01*
X0050400Y0059589D01*
X0054461Y0059589D01*
X0054461Y0061868D01*
X0054326Y0062372D01*
X0054065Y0062825D01*
X0053695Y0063194D01*
X0053603Y0063248D01*
X0053838Y0063483D01*
X0054543Y0062778D01*
X0057568Y0062778D01*
X0059707Y0064917D01*
X0059707Y0067941D01*
X0059176Y0068472D01*
X0059351Y0068472D01*
X0061187Y0068472D01*
X0061692Y0068608D01*
X0062144Y0068869D01*
X0062514Y0069238D01*
X0062775Y0069691D01*
X0062910Y0070195D01*
X0062910Y0072031D01*
X0059351Y0072031D01*
X0059351Y0068472D01*
X0059351Y0072031D01*
X0059351Y0072031D01*
X0055792Y0072031D01*
X0055792Y0070195D01*
X0055823Y0070080D01*
X0054543Y0070080D01*
X0053838Y0069375D01*
X0053133Y0070080D01*
X0052435Y0070080D01*
X0052435Y0070848D01*
X0051435Y0071848D01*
X0050214Y0073068D01*
X0037488Y0073068D01*
X0036488Y0072068D01*
X0035267Y0070848D01*
X0035267Y0069684D01*
X0034923Y0069684D01*
X0034923Y0070608D01*
X0039214Y0074900D01*
X0039452Y0074900D01*
X0039452Y0074163D01*
X0040380Y0073235D01*
X0045629Y0073235D01*
X0046351Y0073956D01*
X0047073Y0073235D01*
X0052322Y0073235D01*
X0053250Y0074163D01*
X0053250Y0075853D01*
X0056192Y0075853D01*
X0056192Y0075706D01*
X0056650Y0075248D01*
X0056558Y0075194D01*
X0056188Y0074825D01*
X0055927Y0074372D01*
X0055792Y0073868D01*
X0055792Y0072032D01*
X0059351Y0072032D01*
X0059351Y0072031D01*
X0059351Y0072032D01*
X0062910Y0072032D01*
X0062910Y0073868D01*
X0062775Y0074372D01*
X0062514Y0074825D01*
X0062144Y0075194D01*
X0062052Y0075248D01*
X0062510Y0075706D01*
X0062510Y0080168D01*
X0061582Y0081096D01*
X0057120Y0081096D01*
X0056192Y0080168D01*
X0056192Y0080021D01*
X0053035Y0080021D01*
X0052322Y0080734D01*
X0047073Y0080734D01*
X0046351Y0080012D01*
X0045629Y0080734D01*
X0045698Y0080665D02*
X0047004Y0080665D01*
X0043535Y0086251D02*
X0043535Y0089717D01*
X0042701Y0090551D01*
X0065296Y0090551D01*
X0065296Y0052088D01*
X0062416Y0054968D01*
X0060367Y0054968D01*
X0060367Y0050000D01*
X0060335Y0050000D01*
X0060335Y0049968D01*
X0060367Y0049968D01*
X0060367Y0045000D01*
X0062416Y0045000D01*
X0065296Y0047880D01*
X0065296Y0042088D01*
X0062416Y0044968D01*
X0060367Y0044968D01*
X0060367Y0040000D01*
X0060335Y0040000D01*
X0060335Y0039968D01*
X0060367Y0039968D01*
X0060367Y0035000D01*
X0062416Y0035000D01*
X0065296Y0037880D01*
X0065296Y0032088D01*
X0062416Y0034968D01*
X0060367Y0034968D01*
X0060367Y0030000D01*
X0060335Y0030000D01*
X0060335Y0029968D01*
X0060367Y0029968D01*
X0060367Y0025000D01*
X0062416Y0025000D01*
X0065296Y0027880D01*
X0065296Y0022088D01*
X0062416Y0024968D01*
X0060367Y0024968D01*
X0060367Y0020000D01*
X0060335Y0020000D01*
X0060335Y0019968D01*
X0060367Y0019968D01*
X0060367Y0015000D01*
X0062416Y0015000D01*
X0065296Y0017880D01*
X0065296Y0012088D01*
X0062416Y0014968D01*
X0060367Y0014968D01*
X0060367Y0010000D01*
X0060335Y0010000D01*
X0060335Y0009968D01*
X0060367Y0009968D01*
X0060367Y0005000D01*
X0062416Y0005000D01*
X0065296Y0007880D01*
X0065296Y0003968D01*
X0004304Y0003968D01*
X0004304Y0044084D01*
X0004988Y0043400D01*
X0006003Y0042384D01*
X0007157Y0042384D01*
X0007257Y0042284D01*
X0012267Y0042284D01*
X0012267Y0029969D01*
X0011851Y0029553D01*
X0011381Y0030023D01*
X0010064Y0030568D01*
X0008638Y0030568D01*
X0007321Y0030023D01*
X0006312Y0029015D01*
X0005767Y0027697D01*
X0005767Y0026271D01*
X0006312Y0024954D01*
X0007321Y0023946D01*
X0008638Y0023400D01*
X0010064Y0023400D01*
X0011381Y0023946D01*
X0011851Y0024415D01*
X0012321Y0023946D01*
X0013638Y0023400D01*
X0015064Y0023400D01*
X0016381Y0023946D01*
X0016568Y0024133D01*
X0016811Y0023889D01*
X0017464Y0023453D01*
X0018189Y0023153D01*
X0018959Y0023000D01*
X0019351Y0023000D01*
X0019351Y0026984D01*
X0019351Y0026984D01*
X0019351Y0023000D01*
X0019743Y0023000D01*
X0020513Y0023153D01*
X0021238Y0023453D01*
X0021891Y0023889D01*
X0022134Y0024133D01*
X0022321Y0023946D01*
X0023638Y0023400D01*
X0025064Y0023400D01*
X0026381Y0023946D01*
X0027390Y0024954D01*
X0027935Y0026271D01*
X0027935Y0026837D01*
X0045767Y0009005D01*
X0045767Y0008085D01*
X0048452Y0005400D01*
X0052250Y0005400D01*
X0054935Y0008085D01*
X0054935Y0011883D01*
X0052250Y0014568D01*
X0048452Y0014568D01*
X0047275Y0013392D01*
X0042767Y0017900D01*
X0045952Y0017900D01*
X0048452Y0015400D01*
X0052250Y0015400D01*
X0054935Y0018085D01*
X0054935Y0021883D01*
X0052250Y0024568D01*
X0048452Y0024568D01*
X0045952Y0022068D01*
X0043214Y0022068D01*
X0037383Y0027900D01*
X0045952Y0027900D01*
X0048452Y0025400D01*
X0052250Y0025400D01*
X0054935Y0028085D01*
X0054935Y0031883D01*
X0052250Y0034568D01*
X0048452Y0034568D01*
X0045952Y0032068D01*
X0037214Y0032068D01*
X0024435Y0044848D01*
X0024435Y0052848D01*
X0023214Y0054068D01*
X0019156Y0058127D01*
X0017935Y0059348D01*
X0016662Y0059348D01*
X0021935Y0064621D01*
X0021935Y0078348D01*
X0013535Y0086748D01*
X0013535Y0089717D01*
X0012701Y0090551D01*
X0036001Y0090551D01*
X0035167Y0089717D01*
X0035167Y0086251D01*
X0037618Y0083800D01*
X0041084Y0083800D01*
X0043535Y0086251D01*
X0043535Y0086566D02*
X0065296Y0086566D01*
X0065296Y0088533D02*
X0043535Y0088533D01*
X0042753Y0090500D02*
X0065296Y0090500D01*
X0065296Y0084599D02*
X0041883Y0084599D01*
X0040311Y0080665D02*
X0019618Y0080665D01*
X0017651Y0082632D02*
X0065296Y0082632D01*
X0065296Y0080665D02*
X0062013Y0080665D01*
X0062510Y0078698D02*
X0065296Y0078698D01*
X0065296Y0076731D02*
X0062510Y0076731D01*
X0062549Y0074764D02*
X0065296Y0074764D01*
X0065296Y0072797D02*
X0062910Y0072797D01*
X0062910Y0070830D02*
X0065296Y0070830D01*
X0065296Y0068863D02*
X0062134Y0068863D01*
X0059707Y0066896D02*
X0065296Y0066896D01*
X0065296Y0064929D02*
X0059707Y0064929D01*
X0057752Y0062962D02*
X0065296Y0062962D01*
X0065296Y0060995D02*
X0054461Y0060995D01*
X0054461Y0059028D02*
X0065296Y0059028D01*
X0065296Y0057061D02*
X0054421Y0057061D01*
X0053692Y0053127D02*
X0056445Y0053127D01*
X0055367Y0052049D02*
X0055367Y0050000D01*
X0060335Y0050000D01*
X0060335Y0054968D01*
X0058286Y0054968D01*
X0055367Y0052049D01*
X0055367Y0051160D02*
X0054935Y0051160D01*
X0055367Y0049968D02*
X0055367Y0047920D01*
X0058286Y0045000D01*
X0060335Y0045000D01*
X0060335Y0049968D01*
X0055367Y0049968D01*
X0055367Y0049193D02*
X0054935Y0049193D01*
X0054075Y0047226D02*
X0056061Y0047226D01*
X0058028Y0045259D02*
X0036373Y0045259D01*
X0036373Y0047226D02*
X0038946Y0047226D01*
X0038700Y0049193D02*
X0036373Y0049193D01*
X0036373Y0043292D02*
X0047175Y0043292D01*
X0048452Y0044568D02*
X0045767Y0041883D01*
X0045767Y0038085D01*
X0048452Y0035400D01*
X0052250Y0035400D01*
X0054935Y0038085D01*
X0054935Y0041883D01*
X0052250Y0044568D01*
X0048452Y0044568D01*
X0046627Y0047226D02*
X0045756Y0047226D01*
X0045767Y0041325D02*
X0041928Y0041325D01*
X0043535Y0039358D02*
X0045767Y0039358D01*
X0046462Y0037391D02*
X0043535Y0037391D01*
X0042708Y0035424D02*
X0048429Y0035424D01*
X0047340Y0033456D02*
X0035826Y0033456D01*
X0035994Y0035424D02*
X0033859Y0035424D01*
X0032997Y0037391D02*
X0031892Y0037391D01*
X0031030Y0039358D02*
X0029925Y0039358D01*
X0030754Y0041325D02*
X0027958Y0041325D01*
X0029304Y0043292D02*
X0025991Y0043292D01*
X0024435Y0045259D02*
X0029304Y0045259D01*
X0029304Y0047226D02*
X0024435Y0047226D01*
X0024435Y0049193D02*
X0029304Y0049193D01*
X0029304Y0051160D02*
X0024435Y0051160D01*
X0024156Y0053127D02*
X0029304Y0053127D01*
X0029304Y0055094D02*
X0022189Y0055094D01*
X0020222Y0057061D02*
X0029304Y0057061D01*
X0028904Y0059028D02*
X0018255Y0059028D01*
X0018309Y0060995D02*
X0028987Y0060995D01*
X0029304Y0062962D02*
X0020276Y0062962D01*
X0021935Y0064929D02*
X0029304Y0064929D01*
X0029304Y0066896D02*
X0021935Y0066896D01*
X0021935Y0068863D02*
X0029411Y0068863D01*
X0030754Y0070830D02*
X0021935Y0070830D01*
X0021935Y0072797D02*
X0031216Y0072797D01*
X0033183Y0074764D02*
X0021935Y0074764D01*
X0021935Y0076731D02*
X0035150Y0076731D01*
X0037117Y0078698D02*
X0021585Y0078698D01*
X0015684Y0084599D02*
X0036819Y0084599D01*
X0035167Y0086566D02*
X0013717Y0086566D01*
X0013535Y0088533D02*
X0035167Y0088533D01*
X0035949Y0090500D02*
X0012753Y0090500D01*
X0035144Y0070830D02*
X0035267Y0070830D01*
X0037111Y0072797D02*
X0037216Y0072797D01*
X0039078Y0074764D02*
X0039452Y0074764D01*
X0038405Y0062091D02*
X0038398Y0062064D01*
X0038398Y0059638D01*
X0042351Y0059638D01*
X0042351Y0059638D01*
X0038398Y0059638D01*
X0038398Y0057211D01*
X0038511Y0056789D01*
X0036373Y0056789D01*
X0036373Y0058001D01*
X0036376Y0058004D01*
X0036637Y0058457D01*
X0036773Y0058962D01*
X0036773Y0059823D01*
X0036773Y0060458D01*
X0038405Y0062091D01*
X0038398Y0060995D02*
X0037309Y0060995D01*
X0036773Y0059823D02*
X0032839Y0059823D01*
X0032839Y0059823D01*
X0036773Y0059823D01*
X0036773Y0059028D02*
X0038398Y0059028D01*
X0038439Y0057061D02*
X0036373Y0057061D01*
X0048189Y0055094D02*
X0065296Y0055094D01*
X0065296Y0053127D02*
X0064257Y0053127D01*
X0060367Y0053127D02*
X0060335Y0053127D01*
X0060335Y0051160D02*
X0060367Y0051160D01*
X0060335Y0049193D02*
X0060367Y0049193D01*
X0060335Y0047226D02*
X0060367Y0047226D01*
X0060335Y0045259D02*
X0060367Y0045259D01*
X0060335Y0044968D02*
X0058286Y0044968D01*
X0055367Y0042049D01*
X0055367Y0040000D01*
X0060335Y0040000D01*
X0060335Y0044968D01*
X0060335Y0043292D02*
X0060367Y0043292D01*
X0060335Y0041325D02*
X0060367Y0041325D01*
X0060335Y0039968D02*
X0055367Y0039968D01*
X0055367Y0037920D01*
X0058286Y0035000D01*
X0060335Y0035000D01*
X0060335Y0039968D01*
X0060335Y0039358D02*
X0060367Y0039358D01*
X0060335Y0037391D02*
X0060367Y0037391D01*
X0060335Y0035424D02*
X0060367Y0035424D01*
X0060335Y0034968D02*
X0058286Y0034968D01*
X0055367Y0032049D01*
X0055367Y0030000D01*
X0060335Y0030000D01*
X0060335Y0034968D01*
X0060335Y0033456D02*
X0060367Y0033456D01*
X0060335Y0031489D02*
X0060367Y0031489D01*
X0060335Y0029968D02*
X0055367Y0029968D01*
X0055367Y0027920D01*
X0058286Y0025000D01*
X0060335Y0025000D01*
X0060335Y0029968D01*
X0060335Y0029522D02*
X0060367Y0029522D01*
X0060335Y0027555D02*
X0060367Y0027555D01*
X0060335Y0025588D02*
X0060367Y0025588D01*
X0060335Y0024968D02*
X0058286Y0024968D01*
X0055367Y0022049D01*
X0055367Y0020000D01*
X0060335Y0020000D01*
X0060335Y0024968D01*
X0060335Y0023621D02*
X0060367Y0023621D01*
X0060335Y0021654D02*
X0060367Y0021654D01*
X0060335Y0019968D02*
X0055367Y0019968D01*
X0055367Y0017920D01*
X0058286Y0015000D01*
X0060335Y0015000D01*
X0060335Y0019968D01*
X0060335Y0019687D02*
X0060367Y0019687D01*
X0060335Y0017720D02*
X0060367Y0017720D01*
X0060335Y0015753D02*
X0060367Y0015753D01*
X0060335Y0014968D02*
X0058286Y0014968D01*
X0055367Y0012049D01*
X0055367Y0010000D01*
X0060335Y0010000D01*
X0060335Y0014968D01*
X0060335Y0013786D02*
X0060367Y0013786D01*
X0060335Y0011819D02*
X0060367Y0011819D01*
X0060335Y0009968D02*
X0055367Y0009968D01*
X0055367Y0007920D01*
X0058286Y0005000D01*
X0060335Y0005000D01*
X0060335Y0009968D01*
X0060335Y0009852D02*
X0060367Y0009852D01*
X0060335Y0007885D02*
X0060367Y0007885D01*
X0060335Y0005918D02*
X0060367Y0005918D01*
X0063334Y0005918D02*
X0065296Y0005918D01*
X0065296Y0013786D02*
X0063598Y0013786D01*
X0063169Y0015753D02*
X0065296Y0015753D01*
X0065296Y0017720D02*
X0065136Y0017720D01*
X0065296Y0023621D02*
X0063763Y0023621D01*
X0063004Y0025588D02*
X0065296Y0025588D01*
X0065296Y0027555D02*
X0064971Y0027555D01*
X0065296Y0033456D02*
X0063928Y0033456D01*
X0062839Y0035424D02*
X0065296Y0035424D01*
X0065296Y0037391D02*
X0064806Y0037391D01*
X0065296Y0043292D02*
X0064092Y0043292D01*
X0065296Y0045259D02*
X0062674Y0045259D01*
X0064641Y0047226D02*
X0065296Y0047226D01*
X0057863Y0035424D02*
X0052273Y0035424D01*
X0053362Y0033456D02*
X0056774Y0033456D01*
X0055367Y0031489D02*
X0054935Y0031489D01*
X0054935Y0029522D02*
X0055367Y0029522D01*
X0055731Y0027555D02*
X0054405Y0027555D01*
X0052438Y0025588D02*
X0057698Y0025588D01*
X0056939Y0023621D02*
X0053197Y0023621D01*
X0054935Y0021654D02*
X0055367Y0021654D01*
X0055367Y0019687D02*
X0054935Y0019687D01*
X0054570Y0017720D02*
X0055566Y0017720D01*
X0057533Y0015753D02*
X0052603Y0015753D01*
X0053032Y0013786D02*
X0057104Y0013786D01*
X0055367Y0011819D02*
X0054935Y0011819D01*
X0054935Y0009852D02*
X0055367Y0009852D01*
X0055401Y0007885D02*
X0054735Y0007885D01*
X0052768Y0005918D02*
X0057368Y0005918D01*
X0047934Y0005918D02*
X0004304Y0005918D01*
X0004304Y0007885D02*
X0045967Y0007885D01*
X0044919Y0009852D02*
X0004304Y0009852D01*
X0004304Y0011819D02*
X0042952Y0011819D01*
X0040985Y0013786D02*
X0011636Y0013786D01*
X0011250Y0013400D02*
X0013935Y0016085D01*
X0013935Y0017984D01*
X0009351Y0017984D01*
X0009351Y0017984D01*
X0009351Y0013400D01*
X0007452Y0013400D01*
X0004767Y0016085D01*
X0004767Y0017984D01*
X0009351Y0017984D01*
X0009351Y0013400D01*
X0011250Y0013400D01*
X0009351Y0013786D02*
X0009351Y0013786D01*
X0009351Y0015753D02*
X0009351Y0015753D01*
X0009351Y0017720D02*
X0009351Y0017720D01*
X0009351Y0017984D02*
X0009351Y0017984D01*
X0009351Y0017984D01*
X0004767Y0017984D01*
X0004767Y0019883D01*
X0007452Y0022568D01*
X0009351Y0022568D01*
X0011250Y0022568D01*
X0013935Y0019883D01*
X0013935Y0017984D01*
X0009351Y0017984D01*
X0009351Y0022568D01*
X0009351Y0017984D01*
X0009351Y0017984D01*
X0009351Y0019687D02*
X0009351Y0019687D01*
X0009351Y0021654D02*
X0009351Y0021654D01*
X0008104Y0023621D02*
X0004304Y0023621D01*
X0004304Y0021654D02*
X0006538Y0021654D01*
X0004767Y0019687D02*
X0004304Y0019687D01*
X0004304Y0017720D02*
X0004767Y0017720D01*
X0005099Y0015753D02*
X0004304Y0015753D01*
X0004304Y0013786D02*
X0007066Y0013786D01*
X0012164Y0021654D02*
X0033117Y0021654D01*
X0035084Y0019687D02*
X0013935Y0019687D01*
X0013935Y0017720D02*
X0037051Y0017720D01*
X0039018Y0015753D02*
X0013603Y0015753D01*
X0013104Y0023621D02*
X0010599Y0023621D01*
X0006050Y0025588D02*
X0004304Y0025588D01*
X0004304Y0027555D02*
X0005767Y0027555D01*
X0006820Y0029522D02*
X0004304Y0029522D01*
X0004304Y0031489D02*
X0012267Y0031489D01*
X0012267Y0033456D02*
X0004304Y0033456D01*
X0004304Y0035424D02*
X0012267Y0035424D01*
X0012267Y0037391D02*
X0004304Y0037391D01*
X0004304Y0039358D02*
X0012267Y0039358D01*
X0012267Y0041325D02*
X0004304Y0041325D01*
X0004304Y0043292D02*
X0005096Y0043292D01*
X0016435Y0038337D02*
X0016435Y0029969D01*
X0016568Y0029836D01*
X0016811Y0030079D01*
X0017464Y0030515D01*
X0018189Y0030815D01*
X0018959Y0030968D01*
X0019351Y0030968D01*
X0019351Y0026984D01*
X0019351Y0026984D01*
X0019351Y0030968D01*
X0019743Y0030968D01*
X0020513Y0030815D01*
X0021238Y0030515D01*
X0021891Y0030079D01*
X0022134Y0029836D01*
X0022321Y0030023D01*
X0023638Y0030568D01*
X0024203Y0030568D01*
X0016435Y0038337D01*
X0016435Y0037391D02*
X0017381Y0037391D01*
X0016435Y0035424D02*
X0019348Y0035424D01*
X0021315Y0033456D02*
X0016435Y0033456D01*
X0016435Y0031489D02*
X0023282Y0031489D01*
X0019351Y0029522D02*
X0019351Y0029522D01*
X0019351Y0027555D02*
X0019351Y0027555D01*
X0019351Y0025588D02*
X0019351Y0025588D01*
X0019351Y0023621D02*
X0019351Y0023621D01*
X0017212Y0023621D02*
X0015599Y0023621D01*
X0021490Y0023621D02*
X0023104Y0023621D01*
X0025599Y0023621D02*
X0031150Y0023621D01*
X0029183Y0025588D02*
X0027652Y0025588D01*
X0037727Y0027555D02*
X0046297Y0027555D01*
X0048264Y0025588D02*
X0039694Y0025588D01*
X0041661Y0023621D02*
X0047505Y0023621D01*
X0046132Y0017720D02*
X0042947Y0017720D01*
X0044914Y0015753D02*
X0048099Y0015753D01*
X0047670Y0013786D02*
X0046881Y0013786D01*
X0054240Y0037391D02*
X0055896Y0037391D01*
X0055367Y0039358D02*
X0054935Y0039358D01*
X0054935Y0041325D02*
X0055367Y0041325D01*
X0056610Y0043292D02*
X0053527Y0043292D01*
X0050400Y0057061D02*
X0050302Y0057061D01*
X0050302Y0059028D02*
X0050400Y0059028D01*
X0053928Y0062962D02*
X0054360Y0062962D01*
X0059351Y0068863D02*
X0059351Y0068863D01*
X0059351Y0070830D02*
X0059351Y0070830D01*
X0055792Y0070830D02*
X0052435Y0070830D01*
X0050486Y0072797D02*
X0055792Y0072797D01*
X0056153Y0074764D02*
X0053250Y0074764D01*
X0052391Y0080665D02*
X0056689Y0080665D01*
X0036774Y0041325D02*
X0034958Y0041325D01*
M02*
