%
M48
M72
T01C0.01969
T02C0.02000
T03C0.03200
T04C0.04000
%
T01
X22351Y56984
X11612Y70767
X18351Y84984
X42351Y48984
X56056Y66429
X46351Y83984
T02
X24351Y26984
X19351Y26984
X14351Y26984
X9351Y26984
T03
X9351Y17984
X39351Y37984
X9351Y77984
X9351Y87984
X39351Y87984
T04
X50351Y49984
X50351Y39984
X50351Y29984
X50351Y19984
X50351Y9984
X60351Y9984
X60351Y19984
X60351Y29984
X60351Y39984
X60351Y49984
M30
